<svg xmlns="http://www.w3.org/2000/svg" xmlns:xlink="http://www.w3.org/1999/xlink" width="794" zoomAndPan="magnify" viewBox="0 0 595.5 595.499986" height="794" preserveAspectRatio="xMidYMid meet" version="1.0"><defs><clipPath id="8ac3398929"><path d="M 166.136719 0.742188 L 386.535156 0.742188 L 386.535156 191.902344 L 166.136719 191.902344 Z M 166.136719 0.742188 " clip-rule="nonzero"/></clipPath><clipPath id="7e582a012d"><path d="M 331.46875 96.257812 L 551.867188 96.257812 L 551.867188 287.421875 L 331.46875 287.421875 Z M 331.46875 96.257812 " clip-rule="nonzero"/></clipPath><clipPath id="32354f5304"><path d="M 1.203125 96.257812 L 221.601562 96.257812 L 221.601562 287.421875 L 1.203125 287.421875 Z M 1.203125 96.257812 " clip-rule="nonzero"/></clipPath><clipPath id="ed211618e2"><path d="M 165.933594 190.191406 L 386.332031 190.191406 L 386.332031 381.355469 L 165.933594 381.355469 Z M 165.933594 190.191406 " clip-rule="nonzero"/></clipPath><clipPath id="878375281d"><path d="M 331.269531 285.707031 L 551.667969 285.707031 L 551.667969 476.871094 L 331.269531 476.871094 Z M 331.269531 285.707031 " clip-rule="nonzero"/></clipPath><clipPath id="32c4b7b0c2"><path d="M 1 285.707031 L 221.398438 285.707031 L 221.398438 476.871094 L 1 476.871094 Z M 1 285.707031 " clip-rule="nonzero"/></clipPath><clipPath id="91697932cb"><path d="M 166.136719 381.226562 L 386.535156 381.226562 L 386.535156 572.386719 L 166.136719 572.386719 Z M 166.136719 381.226562 " clip-rule="nonzero"/></clipPath><clipPath id="6f9554d64e"><rect x="0" width="553" y="0" height="573"/></clipPath></defs><g transform="matrix(1, 0, 0, 1, 21, 11)"><g clip-path="url(#6f9554d64e)"><g clip-path="url(#8ac3398929)"><path fill="#ffda40" d="M 331.429688 191.875 L 221.234375 191.875 L 166.136719 96.324219 L 221.234375 0.773438 L 331.429688 0.773438 L 386.527344 96.324219 Z M 225.550781 184.386719 L 327.109375 184.386719 L 377.886719 96.324219 L 327.109375 8.261719 L 225.550781 8.261719 L 174.773438 96.324219 Z M 225.550781 184.386719 " fill-opacity="1" fill-rule="nonzero"/></g><g clip-path="url(#7e582a012d)"><path fill="#ffda40" d="M 496.761719 287.394531 L 386.566406 287.394531 L 331.46875 191.839844 L 386.566406 96.289062 L 496.761719 96.289062 L 551.859375 191.839844 Z M 390.886719 279.902344 L 492.445312 279.902344 L 543.222656 191.839844 L 492.445312 103.777344 L 390.886719 103.777344 L 340.109375 191.839844 Z M 390.886719 279.902344 " fill-opacity="1" fill-rule="nonzero"/></g><g clip-path="url(#32354f5304)"><path fill="#ffda40" d="M 166.496094 287.394531 L 56.300781 287.394531 L 1.203125 191.839844 L 56.300781 96.289062 L 166.496094 96.289062 L 221.59375 191.839844 Z M 60.617188 279.902344 L 162.175781 279.902344 L 212.953125 191.839844 L 162.175781 103.777344 L 60.617188 103.777344 L 9.839844 191.839844 Z M 60.617188 279.902344 " fill-opacity="1" fill-rule="nonzero"/></g><g clip-path="url(#ed211618e2)"><path fill="#ffda40" d="M 331.230469 381.328125 L 221.03125 381.328125 L 165.933594 285.773438 L 221.03125 190.222656 L 331.226562 190.222656 L 386.324219 285.773438 Z M 225.351562 373.835938 L 326.910156 373.835938 L 377.6875 285.773438 L 326.910156 197.710938 L 225.351562 197.710938 L 174.574219 285.773438 Z M 225.351562 373.835938 " fill-opacity="1" fill-rule="nonzero"/></g><g clip-path="url(#878375281d)"><path fill="#ffda40" d="M 496.5625 476.84375 L 386.367188 476.84375 L 331.269531 381.292969 L 386.367188 285.738281 L 496.5625 285.738281 L 551.660156 381.292969 Z M 390.6875 469.355469 L 492.242188 469.355469 L 543.023438 381.292969 L 492.242188 293.230469 L 390.6875 293.230469 L 339.90625 381.292969 Z M 390.6875 469.355469 " fill-opacity="1" fill-rule="nonzero"/></g><g clip-path="url(#32c4b7b0c2)"><path fill="#ffda40" d="M 166.296875 476.84375 L 56.097656 476.84375 L 1 381.292969 L 56.097656 285.738281 L 166.292969 285.738281 L 221.390625 381.292969 Z M 60.417969 469.355469 L 161.976562 469.355469 L 212.753906 381.292969 L 161.976562 293.230469 L 60.417969 293.230469 L 9.640625 381.292969 Z M 60.417969 469.355469 " fill-opacity="1" fill-rule="nonzero"/></g><g clip-path="url(#91697932cb)"><path fill="#ffda40" d="M 331.429688 572.359375 L 221.234375 572.359375 L 166.136719 476.808594 L 221.234375 381.257812 L 331.429688 381.257812 L 386.527344 476.808594 Z M 225.550781 564.871094 L 327.109375 564.871094 L 377.886719 476.808594 L 327.109375 388.746094 L 225.550781 388.746094 L 174.773438 476.808594 Z M 225.550781 564.871094 " fill-opacity="1" fill-rule="nonzero"/></g></g></g></svg>