<svg xmlns="http://www.w3.org/2000/svg" xmlns:xlink="http://www.w3.org/1999/xlink" width="794" zoomAndPan="magnify" viewBox="0 0 594.95996 595.499999" height="794" preserveAspectRatio="xMidYMid meet" version="1.0"><defs><clipPath id="dc79231607"><path d="M 0.230469 20.402344 L 594.691406 20.402344 L 594.691406 511.992188 L 0.230469 511.992188 Z M 0.230469 20.402344 " clip-rule="nonzero"/></clipPath></defs><g clip-path="url(#dc79231607)"><path fill="#dc5230" d="M 118.375 345.15625 C 117.980469 346.261719 79.757812 456.527344 89.835938 506.84375 C 90.289062 509.066406 88.835938 511.234375 86.625 511.675781 C 86.351562 511.734375 86.078125 511.757812 85.816406 511.757812 C 83.898438 511.757812 82.183594 510.414062 81.792969 508.460938 C 76.019531 479.675781 84.753906 434.003906 94.085938 397.800781 C 94.050781 397.707031 93.992188 397.636719 93.964844 397.539062 L 0.859375 72.667969 C 0.242188 70.488281 1.503906 68.21875 3.679688 67.585938 C 5.859375 66.957031 8.132812 68.21875 8.761719 70.40625 L 98.191406 382.535156 C 104.4375 360.28125 110.019531 344.167969 110.613281 342.453125 C 111.363281 340.3125 113.707031 339.183594 115.839844 339.933594 C 117.992188 340.679688 119.113281 343.027344 118.375 345.15625 Z M 591.542969 70.738281 C 589.367188 70.121094 587.09375 71.382812 586.476562 73.558594 L 498.175781 382.5 C 491.941406 360.257812 486.359375 344.167969 485.753906 342.453125 C 485.003906 340.3125 482.671875 339.183594 480.527344 339.933594 C 478.386719 340.679688 477.257812 343.027344 478.007812 345.15625 C 478.398438 346.261719 516.621094 456.527344 506.53125 506.84375 C 506.078125 509.066406 507.53125 511.222656 509.742188 511.675781 C 510.015625 511.734375 510.289062 511.757812 510.554688 511.757812 C 512.46875 511.757812 514.183594 510.414062 514.574219 508.460938 C 520.347656 479.699219 511.636719 434.0625 502.316406 397.875 L 594.378906 75.796875 C 594.984375 73.632812 593.722656 71.359375 591.542969 70.738281 Z M 316.722656 229.164062 C 356.578125 237.199219 446.148438 248.921875 447.054688 249.039062 C 447.230469 249.0625 447.410156 249.074219 447.589844 249.074219 C 448.992188 249.074219 482.148438 248.433594 496.4375 193.039062 C 497.011719 190.847656 495.691406 188.597656 493.488281 188.039062 C 491.296875 187.480469 489.050781 188.800781 488.488281 190.992188 C 476.328125 238.136719 450.578125 240.722656 447.792969 240.851562 C 441.839844 240.066406 356.71875 228.84375 318.34375 221.109375 C 308.085938 219.050781 301.730469 176.925781 301.71875 139.082031 L 301.71875 108.808594 C 305.824219 124.148438 311.988281 136 321.210938 137.84375 C 369.976562 147.664062 479.671875 162.039062 480.765625 162.179688 C 480.945312 162.203125 481.125 162.214844 481.300781 162.214844 C 482.992188 162.214844 522.929688 161.441406 540.253906 94.300781 C 540.828125 92.113281 539.503906 89.863281 537.304688 89.304688 C 535.101562 88.746094 532.867188 90.054688 532.304688 92.253906 C 517.144531 150.996094 484.765625 153.863281 481.527344 154.003906 C 474.972656 153.148438 370.046875 139.308594 322.839844 129.800781 C 308.285156 126.871094 301.742188 68.765625 301.730469 28.433594 L 301.730469 24.554688 C 301.730469 22.28125 299.898438 20.449219 297.625 20.449219 C 295.363281 20.449219 293.519531 22.28125 293.519531 24.554688 L 293.519531 28.433594 C 293.519531 68.765625 286.960938 126.882812 272.410156 129.800781 C 225.210938 139.296875 120.335938 153.136719 113.71875 154.003906 C 110.339844 153.851562 78.066406 150.875 62.929688 92.253906 C 62.359375 90.066406 60.121094 88.734375 57.933594 89.304688 C 55.742188 89.875 54.421875 92.113281 54.980469 94.300781 C 72.308594 161.441406 112.234375 162.214844 113.921875 162.214844 C 114.101562 162.214844 114.28125 162.203125 114.457031 162.179688 C 115.566406 162.039062 225.25 147.664062 274.015625 137.84375 C 283.238281 135.988281 289.390625 124.148438 293.507812 108.808594 L 293.507812 139.09375 C 293.507812 176.9375 287.140625 219.0625 276.871094 221.121094 C 238.527344 228.855469 153.441406 240.078125 147.445312 240.863281 C 144.519531 240.707031 118.875 238.019531 106.746094 191.003906 C 106.1875 188.8125 103.949219 187.492188 101.75 188.050781 C 99.546875 188.621094 98.226562 190.859375 98.796875 193.050781 C 113.078125 248.445312 146.242188 249.085938 147.648438 249.085938 C 147.828125 249.085938 148.003906 249.074219 148.183594 249.050781 C 149.085938 248.933594 238.660156 237.210938 278.5 229.179688 C 285.296875 227.808594 290.105469 220.097656 293.519531 209.683594 L 293.519531 260.035156 C 293.519531 291.011719 288.246094 325.234375 280.429688 326.816406 C 249.035156 333.148438 179.527344 342.324219 174.03125 343.039062 C 171.484375 342.882812 151.027344 340.433594 141.257812 302.566406 C 140.6875 300.375 138.449219 299.054688 136.257812 299.613281 C 134.070312 300.1875 132.75 302.421875 133.308594 304.613281 C 140.4375 332.234375 153.277344 343.488281 162.691406 348.082031 C 162.773438 348.308594 162.867188 348.535156 163 348.75 C 163.285156 349.238281 191.214844 397.5625 193.738281 445.210938 C 193.738281 462.417969 200.6875 472.238281 229.152344 495.238281 C 229.914062 495.859375 230.816406 496.15625 231.734375 496.15625 C 232.9375 496.15625 234.113281 495.632812 234.921875 494.632812 C 236.351562 492.871094 236.078125 490.289062 234.304688 488.863281 C 206.398438 466.324219 201.9375 458.5625 201.9375 445.007812 C 199.839844 405.273438 181.609375 366.410156 173.695312 351.238281 C 173.972656 351.25 174.148438 351.25 174.21875 351.25 C 174.398438 351.25 174.578125 351.238281 174.757812 351.214844 C 175.492188 351.117188 249.238281 341.453125 282.058594 334.851562 C 287.035156 333.839844 290.746094 329.054688 293.53125 322.308594 L 293.53125 425.730469 C 293.53125 428.003906 295.363281 429.835938 297.636719 429.835938 C 299.910156 429.835938 301.742188 428.003906 301.742188 425.730469 L 301.742188 322.308594 C 304.527344 329.054688 308.25 333.851562 313.214844 334.851562 C 346.023438 341.46875 419.765625 351.117188 420.503906 351.214844 C 420.683594 351.238281 420.863281 351.25 421.039062 351.25 C 421.113281 351.25 421.289062 351.25 421.574219 351.226562 C 413.664062 366.398438 395.429688 405.300781 393.324219 445.210938 C 393.324219 458.550781 388.863281 466.3125 360.957031 488.851562 C 359.195312 490.277344 358.921875 492.859375 360.351562 494.621094 C 361.160156 495.621094 362.347656 496.144531 363.539062 496.144531 C 364.445312 496.144531 365.359375 495.847656 366.121094 495.226562 C 394.585938 472.226562 401.535156 462.40625 401.523438 445.425781 C 404.046875 397.613281 431.988281 349.226562 432.261719 348.738281 C 432.394531 348.523438 432.488281 348.296875 432.570312 348.070312 C 441.984375 343.476562 454.824219 332.222656 461.953125 304.601562 C 462.523438 302.410156 461.203125 300.160156 459 299.601562 C 456.8125 299.042969 454.5625 300.351562 454.003906 302.554688 C 444.199219 340.550781 423.632812 342.882812 421.242188 343.027344 C 415.828125 342.3125 346.25 333.125 314.84375 326.792969 C 307.015625 325.210938 301.742188 290.988281 301.742188 260.011719 L 301.742188 209.671875 C 305.121094 220.097656 309.929688 227.808594 316.722656 229.164062 Z M 312.378906 451.984375 C 312.378906 458.183594 305.894531 463.039062 297.613281 463.039062 C 289.332031 463.039062 282.855469 458.183594 282.855469 451.984375 C 282.855469 445.769531 289.34375 440.902344 297.613281 440.902344 C 305.894531 440.902344 312.378906 445.757812 312.378906 451.984375 Z M 304.167969 451.984375 C 304.167969 451.148438 301.871094 449.113281 297.613281 449.113281 C 293.351562 449.113281 291.054688 451.148438 291.054688 451.984375 C 291.054688 452.804688 293.351562 454.828125 297.613281 454.828125 C 301.871094 454.828125 304.167969 452.804688 304.167969 451.984375 Z M 304.167969 451.984375 " fill-opacity="1" fill-rule="nonzero"/></g></svg>