<svg xmlns="http://www.w3.org/2000/svg" xmlns:xlink="http://www.w3.org/1999/xlink" width="794" zoomAndPan="magnify" viewBox="0 0 594.95996 595.499999" height="794" preserveAspectRatio="xMidYMid meet" version="1.0"><defs><clipPath id="7077f5eab1"><path d="M 4 152 L 594.691406 152 L 594.691406 442 L 4 442 Z M 4 152 " clip-rule="nonzero"/></clipPath><clipPath id="eddf3a26b3"><path d="M 0.304688 9 L 283.839844 9 L 283.839844 289 L 0.304688 289 Z M 0.304688 9 " clip-rule="nonzero"/></clipPath><clipPath id="c5363b3377"><path d="M 313.402344 1.367188 L 590.691406 1.367188 L 590.691406 288.972656 L 313.402344 288.972656 Z M 313.402344 1.367188 " clip-rule="nonzero"/></clipPath><clipPath id="89ad2dff25"><rect x="0" width="591" y="0" height="290"/></clipPath></defs><g clip-path="url(#7077f5eab1)"><g transform="matrix(1, 0, 0, 1, 4, 152)"><g clip-path="url(#89ad2dff25)"><g clip-path="url(#eddf3a26b3)"><path fill="#dc5230" d="M 142.210938 9.773438 L 141.808594 9.761719 C 140.371094 9.195312 137.746094 9.628906 133.933594 11.050781 C 126.304688 14.472656 110.75 22.324219 87.269531 34.609375 C 61.832031 61.347656 43.402344 83.226562 31.980469 100.25 C 23.605469 109.65625 15.574219 128.246094 7.890625 156.015625 C 0.183594 183.0625 -1.527344 202.890625 2.757812 215.507812 C 5.007812 222.59375 10.9375 229.53125 20.554688 236.324219 C 36.59375 245.425781 51.445312 252.003906 65.105469 256.054688 C 81.5625 261.316406 99.734375 263.578125 119.625 262.851562 C 142.167969 259.84375 159.617188 256.085938 171.972656 251.582031 C 176.917969 250.636719 181.445312 250.410156 185.558594 250.90625 C 189.09375 251.511719 193.835938 253.492188 199.789062 256.847656 C 208.589844 266.234375 219.804688 275.238281 233.425781 283.863281 C 237.488281 285.984375 245.925781 287.636719 258.738281 288.828125 C 267.164062 289.199219 273.105469 287.867188 276.558594 284.828125 C 279.035156 283.285156 280.738281 277.621094 281.675781 267.835938 L 284.144531 164.625 C 282.878906 155.964844 278.058594 147.769531 269.679688 140.050781 C 258.160156 131.761719 245.652344 128.523438 232.160156 130.34375 C 225.144531 131.125 216.417969 133.816406 205.976562 138.410156 C 183.5 152.105469 168.789062 160.359375 161.84375 163.175781 L 122.5 156.820312 C 113.585938 156.625 101.980469 158.257812 87.6875 161.710938 C 86.359375 161.835938 85.179688 160.898438 84.148438 158.898438 C 83.234375 147.921875 83.742188 136.273438 85.675781 123.953125 C 88.71875 108.257812 90.96875 98.640625 92.429688 95.097656 L 99.601562 74.605469 L 119.1875 66.125 C 131.625 67.332031 139.972656 67.082031 144.230469 65.371094 C 151.832031 60.363281 156.746094 57.699219 158.972656 57.378906 C 162.207031 56.347656 165.148438 56.101562 167.800781 56.640625 C 168.566406 56.28125 169.382812 55.183594 170.257812 53.351562 C 170.210938 44.902344 166.40625 34.859375 158.851562 23.230469 C 155.765625 18.289062 152.617188 14.628906 149.40625 12.253906 C 147.820312 10.746094 145.417969 9.917969 142.210938 9.773438 " fill-opacity="0.996" fill-rule="nonzero"/></g><g clip-path="url(#c5363b3377)"><path fill="#dc5230" d="M 482.644531 1.519531 L 475.042969 1.960938 C 455.570312 4.945312 442.476562 22.394531 435.773438 54.304688 C 435.472656 55.753906 437.832031 57.316406 442.84375 58.992188 L 470.992188 65.0625 C 473.160156 65.605469 477.769531 63.464844 484.820312 58.636719 C 493.804688 60 503.496094 59.5 513.890625 57.132812 C 516.667969 66.953125 517.980469 75.886719 517.832031 83.933594 C 518.394531 88.972656 516.453125 106.765625 512.007812 137.308594 L 513.074219 168.429688 L 476.917969 141.425781 C 470.734375 138.308594 459.089844 135.621094 441.992188 133.363281 C 435.972656 132.609375 425.398438 134.960938 410.273438 140.421875 C 383.910156 130.960938 367.5625 127.328125 361.230469 129.527344 C 347.683594 130.839844 331.734375 139.335938 313.390625 155.015625 L 324.238281 278.511719 C 326.734375 277.632812 336.246094 280.925781 352.773438 288.390625 C 356.023438 288.988281 360.714844 289.109375 366.847656 288.757812 C 375.648438 288.339844 381.601562 287.035156 384.699219 284.84375 L 397.984375 269.4375 C 401.476562 265.601562 404.746094 262.558594 407.792969 260.3125 C 410.882812 257.3125 419.40625 254.105469 433.367188 250.683594 C 439.144531 249.332031 444.40625 248.800781 449.152344 249.089844 C 475.691406 252.03125 492.660156 253.503906 500.066406 253.507812 L 518.777344 251.800781 C 527.375 251.054688 541.523438 247.136719 561.230469 240.046875 C 574.398438 239.171875 581.417969 238.433594 582.285156 237.839844 C 586.875 235.648438 589.5 233.480469 590.160156 231.34375 C 590.492188 231.007812 590.78125 229.710938 591.023438 227.445312 L 588.636719 165.726562 C 586.296875 145.621094 583.910156 130.054688 581.46875 119.027344 C 581.070312 116.558594 579.835938 112.179688 577.769531 105.886719 L 549.1875 41.121094 C 543.539062 28.160156 534.871094 18.667969 523.171875 12.644531 C 507.941406 5.828125 494.433594 2.117188 482.644531 1.519531 " fill-opacity="0.996" fill-rule="nonzero"/></g></g></g></g></svg>