<svg xmlns="http://www.w3.org/2000/svg" xmlns:xlink="http://www.w3.org/1999/xlink" width="794" zoomAndPan="magnify" viewBox="0 0 594.95996 595.499999" height="794" preserveAspectRatio="xMidYMid meet" version="1.0"><path fill="#dc5230" d="M 230.566406 294.492188 C 241.640625 305.046875 254.195312 317.007812 267.609375 338.804688 C 269.019531 341.09375 268.304688 344.089844 266.019531 345.496094 C 265.222656 345.984375 264.34375 346.21875 263.472656 346.21875 C 261.84375 346.21875 260.246094 345.394531 259.328125 343.902344 C 246.574219 323.175781 235.023438 312.171875 223.855469 301.53125 C 215.105469 293.191406 206.707031 285.175781 198.613281 273.308594 C 197.542969 282.257812 194.96875 293.410156 189.007812 303.636719 C 188.101562 305.183594 186.472656 306.046875 184.800781 306.046875 C 183.96875 306.046875 183.125 305.835938 182.355469 305.386719 C 180.035156 304.03125 179.25 301.054688 180.605469 298.734375 C 190.222656 282.242188 189.726562 262.097656 189.5 257.84375 C 177.929688 235.203125 175.226562 217.167969 173.253906 203.957031 C 171.257812 190.546875 170.015625 183.914062 163.695312 179.703125 C 158.542969 176.269531 153.539062 174.152344 147.742188 171.703125 C 135.523438 166.539062 121.675781 160.691406 101.585938 140.597656 C 99.683594 138.699219 99.683594 135.621094 101.585938 133.722656 C 103.484375 131.820312 106.5625 131.820312 108.460938 133.722656 C 127.210938 152.46875 140.128906 157.925781 151.527344 162.742188 C 157.519531 165.273438 163.175781 167.664062 169.089844 171.609375 C 179.28125 178.402344 180.867188 189.042969 182.875 202.523438 C 184.875 215.9375 187.367188 232.632812 198.574219 254.253906 C 208.585938 273.542969 218.773438 283.25 230.566406 294.488281 Z M 126.613281 86.441406 C 123.472656 88.632812 120.417969 90.878906 117.554688 93.238281 C 115.480469 94.945312 115.183594 98.011719 116.890625 100.085938 C 117.851562 101.253906 119.246094 101.855469 120.648438 101.855469 C 121.738281 101.855469 122.828125 101.492188 123.734375 100.746094 C 142.257812 85.492188 168.453125 73.675781 189.496094 64.179688 C 215 52.671875 230.394531 45.726562 230.394531 35.621094 L 230.394531 4.957031 C 230.394531 2.269531 228.21875 0.09375 225.53125 0.09375 C 222.847656 0.09375 220.667969 2.269531 220.667969 4.957031 L 220.671875 35.566406 C 219.847656 39.816406 199.996094 48.773438 185.5 55.3125 C 169.933594 62.335938 151.652344 70.625 135.332031 80.722656 C 104.929688 57.949219 50.898438 50.699219 8.417969 81.914062 C 6.253906 83.503906 5.789062 86.550781 7.378906 88.714844 C 8.332031 90.011719 9.804688 90.699219 11.300781 90.699219 C 12.300781 90.699219 13.3125 90.390625 14.179688 89.753906 C 51.546875 62.289062 98.625 67.441406 126.613281 86.441406 Z M 258.039062 169.050781 C 258.605469 166.421875 261.195312 164.769531 263.820312 165.324219 C 273.988281 167.523438 283.089844 172.726562 289.921875 179.535156 C 291.988281 171.21875 292.746094 160.8125 292.746094 138.835938 C 292.746094 108.484375 265.421875 100.332031 264.261719 100 C 261.683594 99.261719 260.179688 96.578125 260.90625 94 C 261.636719 91.421875 264.316406 89.910156 266.886719 90.632812 C 267.160156 90.707031 287.9375 96.777344 297.609375 116.671875 C 307.28125 96.777344 328.054688 90.707031 328.328125 90.632812 C 330.886719 89.910156 333.59375 91.421875 334.320312 94.011719 C 335.039062 96.59375 333.53125 99.273438 330.949219 100 C 329.722656 100.351562 302.472656 108.523438 302.472656 138.835938 C 302.472656 160.808594 303.226562 171.210938 305.296875 179.535156 C 312.128906 172.726562 321.230469 167.519531 331.394531 165.324219 C 334.050781 164.757812 336.609375 166.425781 337.175781 169.050781 C 337.746094 171.675781 336.078125 174.261719 333.453125 174.832031 C 321.921875 177.324219 313.0625 184.035156 307.824219 191.636719 C 307.621094 192.074219 307.34375 192.472656 307.019531 192.835938 C 304.070312 197.503906 302.472656 202.4375 302.472656 206.898438 L 302.472656 282.199219 C 302.472656 299.597656 311.226562 317.261719 319.792969 332.246094 C 321.125 334.578125 320.316406 337.550781 317.980469 338.882812 C 317.222656 339.316406 316.390625 339.523438 315.570312 339.523438 C 313.882812 339.523438 312.246094 338.644531 311.34375 337.074219 C 308.289062 331.726562 305.21875 326.042969 302.472656 320.121094 L 302.472656 441.777344 C 302.472656 444.460938 300.292969 446.640625 297.609375 446.640625 C 294.921875 446.640625 292.746094 444.460938 292.746094 441.777344 L 292.746094 320.121094 C 289.996094 326.039062 286.925781 331.726562 283.871094 337.070312 C 282.972656 338.644531 281.332031 339.523438 279.644531 339.523438 C 278.824219 339.523438 277.996094 339.316406 277.238281 338.882812 C 274.902344 337.550781 274.09375 334.578125 275.425781 332.246094 C 283.988281 317.257812 292.746094 299.589844 292.746094 282.199219 L 292.746094 206.898438 C 292.746094 202.4375 291.144531 197.507812 288.199219 192.839844 C 287.871094 192.472656 287.589844 192.070312 287.386719 191.628906 C 282.144531 184.027344 273.289062 177.324219 261.761719 174.832031 C 259.140625 174.261719 257.46875 171.675781 258.039062 169.050781 Z M 262.222656 360.402344 C 245.285156 385.644531 226.179688 402.417969 218.191406 403.480469 C 212.308594 404.257812 195.875 397.007812 188.6875 392.03125 C 186.488281 390.507812 183.449219 391.050781 181.921875 393.261719 C 180.390625 395.46875 180.941406 398.5 183.152344 400.027344 C 189.140625 404.171875 206.648438 413.253906 217.390625 413.253906 C 218.121094 413.253906 218.816406 413.210938 219.480469 413.125 C 233.878906 411.203125 255.914062 387.257812 270.296875 365.824219 C 271.792969 363.59375 271.199219 360.570312 268.96875 359.074219 C 266.742188 357.582031 263.71875 358.171875 262.222656 360.40625 Z M 285.890625 81.769531 C 287.246094 81.769531 288.589844 81.207031 289.554688 80.109375 C 289.855469 79.765625 294.074219 74.839844 297.609375 66.621094 C 301.144531 74.839844 305.359375 79.765625 305.660156 80.109375 C 306.621094 81.207031 307.964844 81.769531 309.316406 81.769531 C 310.445312 81.769531 311.585938 81.375 312.507812 80.574219 C 314.53125 78.8125 314.742188 75.746094 312.992188 73.71875 C 312.886719 73.597656 302.46875 61.324219 302.46875 43.433594 L 302.46875 21.675781 C 302.46875 18.988281 300.292969 16.8125 297.605469 16.8125 C 294.921875 16.8125 292.742188 18.988281 292.742188 21.675781 L 292.742188 43.433594 C 292.742188 61.230469 282.4375 73.464844 282.226562 73.714844 C 280.464844 75.734375 280.671875 78.800781 282.691406 80.566406 C 283.613281 81.375 284.753906 81.769531 285.890625 81.769531 Z M 586.800781 81.914062 C 544.324219 50.699219 490.289062 57.957031 459.882812 80.722656 C 443.5625 70.625 425.28125 62.335938 409.71875 55.3125 C 395.222656 48.773438 375.371094 39.816406 374.550781 35.625 L 374.550781 4.957031 C 374.550781 2.269531 372.371094 0.09375 369.6875 0.09375 C 367 0.09375 364.824219 2.269531 364.824219 4.957031 L 364.824219 35.625 C 364.824219 45.726562 380.21875 52.671875 405.71875 64.179688 C 426.761719 73.675781 452.957031 85.492188 471.480469 100.746094 C 472.386719 101.492188 473.476562 101.855469 474.566406 101.855469 C 475.96875 101.855469 477.363281 101.25 478.324219 100.085938 C 480.03125 98.011719 479.734375 94.945312 477.660156 93.238281 C 474.796875 90.882812 471.742188 88.632812 468.605469 86.441406 C 496.597656 67.445312 543.671875 62.296875 581.042969 89.753906 C 581.90625 90.390625 582.917969 90.699219 583.917969 90.699219 C 585.414062 90.699219 586.886719 90.011719 587.839844 88.714844 C 589.429688 86.550781 588.964844 83.507812 586.800781 81.914062 Z M 329.199219 345.496094 C 329.996094 345.984375 330.875 346.21875 331.746094 346.21875 C 333.375 346.21875 334.972656 345.398438 335.890625 343.902344 C 348.644531 323.179688 360.191406 312.171875 371.363281 301.53125 C 380.113281 293.1875 388.507812 285.175781 396.605469 273.308594 C 397.675781 282.257812 400.25 293.414062 406.210938 303.636719 C 407.117188 305.1875 408.746094 306.050781 410.417969 306.050781 C 411.25 306.050781 412.09375 305.835938 412.863281 305.386719 C 415.183594 304.03125 415.96875 301.054688 414.613281 298.734375 C 404.992188 282.246094 405.488281 262.101562 405.71875 257.84375 C 417.285156 235.207031 419.992188 217.171875 421.960938 203.957031 C 423.957031 190.550781 425.199219 183.914062 431.519531 179.703125 C 436.671875 176.269531 441.675781 174.15625 447.472656 171.703125 C 459.691406 166.542969 473.539062 160.691406 493.632812 140.601562 C 495.53125 138.703125 495.53125 135.625 493.632812 133.722656 C 491.730469 131.824219 488.65625 131.824219 486.753906 133.722656 C 468.003906 152.46875 455.085938 157.929688 443.6875 162.746094 C 437.695312 165.277344 432.039062 167.667969 426.125 171.609375 C 415.933594 178.402344 414.347656 189.046875 412.339844 202.523438 C 410.339844 215.929688 407.851562 232.617188 396.660156 254.214844 C 386.621094 273.550781 376.4375 283.253906 364.648438 294.488281 C 353.574219 305.042969 341.019531 317.003906 327.609375 338.808594 C 326.199219 341.09375 326.914062 344.089844 329.203125 345.496094 Z M 575.570312 195.585938 C 575.289062 195.851562 553.789062 215.890625 509.164062 219.292969 C 491.292969 220.65625 469.648438 218.34375 457.621094 216.070312 C 454.996094 215.570312 452.4375 217.304688 451.941406 219.945312 C 451.441406 222.585938 453.175781 225.128906 455.816406 225.628906 C 468.128906 227.953125 479.4375 229.109375 489.871094 229.460938 C 483.378906 240.117188 469.160156 259.394531 447.105469 268.21875 C 444.609375 269.214844 443.394531 272.046875 444.394531 274.539062 C 445.152344 276.441406 446.980469 277.597656 448.910156 277.597656 C 449.511719 277.597656 450.121094 277.484375 450.714844 277.246094 C 479.6875 265.65625 496 239.054688 501.097656 229.496094 C 511.800781 229.230469 521.402344 228.085938 529.917969 226.371094 C 525.554688 243.953125 516.5 270.832031 499.03125 290.679688 C 492.199219 298.4375 485.164062 304.875 478.113281 309.804688 C 475.914062 311.347656 475.378906 314.378906 476.917969 316.578125 C 477.863281 317.929688 479.375 318.652344 480.90625 318.652344 C 481.867188 318.652344 482.84375 318.367188 483.691406 317.773438 C 487.355469 315.210938 491 312.265625 494.609375 309.007812 C 489.308594 327.976562 475.589844 361.632812 440.816406 394.464844 C 440.492188 394.726562 440.199219 395.015625 439.957031 395.351562 C 422.808594 412.960938 392.097656 506.53125 388.613281 517.265625 C 387.78125 519.820312 389.179688 522.5625 391.738281 523.394531 C 392.234375 523.554688 392.742188 523.628906 393.238281 523.628906 C 395.289062 523.628906 397.195312 522.324219 397.863281 520.269531 C 405.371094 497.140625 424.289062 442.75 438.132812 415.847656 C 437.097656 439.605469 435.921875 480.316406 439.117188 496.289062 C 440.964844 505.535156 444.148438 517.355469 448.355469 532.242188 C 446.691406 555.632812 396.652344 580.132812 320.554688 584.300781 C 327.472656 540.496094 335.554688 518.460938 335.640625 518.238281 C 336.578125 515.722656 335.300781 512.921875 332.789062 511.980469 C 330.28125 511.027344 327.472656 512.3125 326.53125 514.828125 C 326.167969 515.792969 317.789062 538.546875 310.644531 584.714844 C 306.367188 584.84375 302.035156 584.929688 297.609375 584.929688 C 293.183594 584.929688 288.851562 584.84375 284.574219 584.714844 C 277.429688 538.546875 269.054688 515.792969 268.6875 514.828125 C 267.75 512.3125 264.957031 511.035156 262.433594 511.980469 C 259.917969 512.921875 258.640625 515.722656 259.578125 518.238281 C 259.664062 518.460938 267.746094 540.496094 274.664062 584.300781 C 198.578125 580.132812 148.539062 555.640625 146.863281 532.25 C 151.066406 517.378906 154.242188 505.566406 156.097656 496.289062 C 159.292969 480.316406 158.121094 439.605469 157.082031 415.847656 C 170.929688 442.75 189.847656 497.140625 197.355469 520.269531 C 198.023438 522.324219 199.929688 523.628906 201.980469 523.628906 C 202.480469 523.628906 202.984375 523.554688 203.484375 523.394531 C 206.039062 522.5625 207.4375 519.820312 206.609375 517.265625 C 203.121094 506.527344 172.378906 412.882812 155.238281 395.328125 C 155.011719 395.019531 154.742188 394.753906 154.445312 394.511719 C 119.640625 361.660156 105.910156 327.984375 100.605469 309.003906 C 104.21875 312.265625 107.863281 315.210938 111.523438 317.773438 C 112.371094 318.367188 113.347656 318.652344 114.308594 318.652344 C 115.84375 318.652344 117.351562 317.929688 118.300781 316.578125 C 119.835938 314.378906 119.304688 311.347656 117.101562 309.804688 C 110.0625 304.878906 103.023438 298.445312 96.1875 290.679688 C 78.722656 270.839844 69.664062 243.960938 65.296875 226.371094 C 73.816406 228.085938 83.414062 229.230469 94.121094 229.496094 C 99.214844 239.054688 115.527344 265.65625 144.507812 277.246094 C 145.097656 277.484375 145.710938 277.597656 146.308594 277.597656 C 148.238281 277.597656 150.066406 276.441406 150.824219 274.539062 C 151.824219 272.042969 150.609375 269.214844 148.113281 268.21875 C 126.054688 259.394531 111.835938 240.117188 105.34375 229.460938 C 115.78125 229.109375 127.09375 227.953125 139.402344 225.625 C 142.042969 225.128906 143.777344 222.585938 143.277344 219.945312 C 142.78125 217.304688 140.207031 215.570312 137.597656 216.066406 C 123.476562 218.738281 99.796875 220.542969 84.675781 219.179688 C 40.992188 215.25 19.925781 195.851562 19.648438 195.585938 C 17.71875 193.726562 14.648438 193.769531 12.78125 195.695312 C 10.90625 197.617188 10.953125 200.699219 12.878906 202.570312 C 13.824219 203.492188 27.34375 216.207031 54.71875 223.871094 C 59.441406 244.996094 68.972656 273.777344 87.859375 295.875 C 88.996094 305.242188 97.101562 353.09375 146.582031 400.433594 C 147.226562 412.074219 150.46875 474.851562 146.5625 494.382812 C 144.816406 503.097656 141.8125 514.320312 137.847656 528.386719 C 137.347656 529.148438 137.050781 530.058594 137.050781 531.042969 C 137.050781 566.714844 207.574219 594.65625 297.609375 594.65625 C 387.640625 594.65625 458.167969 566.714844 458.167969 531.042969 C 458.167969 530.066406 457.871094 529.160156 457.375 528.398438 C 453.402344 514.308594 450.394531 503.070312 448.65625 494.382812 C 444.75 474.851562 447.988281 412.074219 448.632812 400.433594 C 498.113281 353.09375 506.21875 305.242188 507.359375 295.875 C 526.253906 273.765625 535.78125 244.988281 540.5 223.871094 C 567.871094 216.207031 581.390625 203.488281 582.339844 202.570312 C 584.261719 200.703125 584.300781 197.636719 582.441406 195.707031 C 580.578125 193.785156 577.503906 193.730469 575.570312 195.582031 Z M 406.527344 392.03125 C 399.335938 397.007812 382.921875 404.261719 377.023438 403.480469 C 369.035156 402.417969 349.929688 385.644531 332.992188 360.402344 C 331.5 358.167969 328.476562 357.582031 326.246094 359.074219 C 324.015625 360.570312 323.421875 363.59375 324.917969 365.824219 C 339.300781 387.257812 361.335938 411.203125 375.738281 413.121094 C 376.398438 413.210938 377.09375 413.253906 377.828125 413.253906 C 388.566406 413.253906 406.074219 404.171875 412.0625 400.027344 C 414.273438 398.496094 414.824219 395.46875 413.292969 393.257812 C 411.761719 391.050781 408.726562 390.5 406.527344 392.027344 Z M 406.527344 392.03125 " fill-opacity="1" fill-rule="nonzero"/></svg>