<svg xmlns="http://www.w3.org/2000/svg" xmlns:xlink="http://www.w3.org/1999/xlink" width="794" zoomAndPan="magnify" viewBox="0 0 594.95996 595.499999" height="794" preserveAspectRatio="xMidYMid meet" version="1.0"><defs><clipPath id="263f8d5dda"><path d="M 1 47 L 513 47 L 513 563.277344 L 1 563.277344 Z M 1 47 " clip-rule="nonzero"/></clipPath><clipPath id="93187ce192"><path d="M 185 317 L 591 317 L 591 563.277344 L 185 563.277344 Z M 185 317 " clip-rule="nonzero"/></clipPath><clipPath id="c10c53aed7"><path d="M 144 31.226562 L 322 31.226562 L 322 209 L 144 209 Z M 144 31.226562 " clip-rule="nonzero"/></clipPath></defs><g clip-path="url(#263f8d5dda)"><path fill="#dc5230" d="M 15.285156 47.90625 L 15.285156 537.453125 L 1.089844 537.453125 L 1.089844 563.183594 L 55.203125 563.183594 L 55.203125 537.453125 L 41.007812 537.453125 L 41.007812 478.0625 L 458.273438 478.0625 C 465.960938 478.0625 472.21875 484.320312 472.21875 492.011719 L 472.21875 537.453125 L 458.03125 537.453125 L 458.03125 563.183594 L 512.140625 563.183594 L 512.140625 537.453125 L 497.949219 537.453125 L 497.949219 492.011719 C 497.949219 470.132812 480.152344 452.335938 458.273438 452.335938 L 41.011719 452.335938 L 41.011719 184.242188 L 82.625 184.242188 L 92.945312 171.058594 L 84.839844 164.714844 L 77.609375 173.953125 L 51.140625 173.953125 L 51.140625 131.324219 L 41.007812 131.324219 L 41.007812 47.90625 Z M 15.285156 47.90625 " fill-opacity="1" fill-rule="nonzero"/></g><path fill="#dc5230" d="M 174.816406 344.898438 C 171.742188 313.074219 143.457031 289.769531 111.632812 292.84375 C 79.808594 295.917969 56.5 324.203125 59.574219 356.03125 C 61.257812 373.441406 70.5 388.296875 83.730469 397.683594 L 150.675781 397.683594 C 167.023438 386.066406 176.882812 366.289062 174.816406 344.898438 Z M 174.816406 344.898438 " fill-opacity="1" fill-rule="nonzero"/><g clip-path="url(#93187ce192)"><path fill="#dc5230" d="M 589.71875 523.636719 L 547.46875 355.941406 C 544.027344 342.277344 532.085938 332.441406 518.011719 331.6875 L 259.226562 317.757812 L 259.226562 353.402344 C 259.226562 368.015625 247.339844 379.902344 232.726562 379.902344 C 218.113281 379.902344 206.226562 368.015625 206.226562 353.402344 L 206.226562 318.039062 C 195.101562 322.609375 187.003906 333.226562 186.3125 346.039062 C 186.3125 346.097656 186.316406 346.15625 186.3125 346.21875 C 186.257812 346.53125 186.183594 346.835938 186.140625 347.152344 C 183.703125 363.472656 191.039062 384.089844 210.164062 397.679688 L 281.75 397.679688 C 286.746094 397.679688 290.726562 400.515625 293.363281 405.566406 C 296.003906 400.519531 299.980469 397.679688 304.984375 397.679688 L 406.082031 397.679688 C 408.949219 395.402344 411.289062 392.988281 413.207031 390.457031 L 490.886719 394.636719 L 527.347656 539.351562 C 531.023438 553.9375 544.121094 563.664062 558.511719 563.660156 C 561.109375 563.660156 563.757812 563.34375 566.390625 562.679688 C 583.613281 558.34375 594.058594 540.863281 589.71875 523.636719 Z M 589.71875 523.636719 " fill-opacity="1" fill-rule="nonzero"/></g><path fill="#dc5230" d="M 304.984375 441.796875 L 447.328125 441.796875 C 457.339844 441.796875 465.53125 433.609375 465.53125 423.597656 C 465.53125 413.585938 457.339844 405.398438 447.328125 405.398438 L 304.984375 405.398438 C 294.976562 405.402344 294.976562 441.796875 304.984375 441.796875 Z M 304.984375 441.796875 " fill-opacity="1" fill-rule="nonzero"/><path fill="#dc5230" d="M 212.144531 353.402344 C 212.144531 364.765625 221.359375 373.984375 232.726562 373.984375 C 244.09375 373.984375 253.3125 364.765625 253.3125 353.402344 L 253.3125 213.496094 C 246.675781 214.949219 239.792969 215.742188 232.726562 215.742188 C 225.664062 215.742188 218.78125 214.953125 212.144531 213.5 Z M 212.144531 353.402344 " fill-opacity="1" fill-rule="nonzero"/><g clip-path="url(#c10c53aed7)"><path fill="#dc5230" d="M 232.726562 208.023438 C 281.546875 208.023438 321.125 168.445312 321.125 119.625 C 321.125 70.804688 281.546875 31.226562 232.726562 31.226562 C 183.90625 31.226562 144.328125 70.804688 144.328125 119.625 C 144.328125 168.445312 183.90625 208.023438 232.726562 208.023438 Z M 191.128906 119.625 C 191.128906 96.648438 209.753906 78.027344 232.726562 78.027344 C 255.699219 78.027344 274.324219 96.652344 274.324219 119.625 C 274.324219 142.597656 255.699219 161.222656 232.726562 161.222656 C 209.753906 161.222656 191.128906 142.597656 191.128906 119.625 Z M 191.128906 119.625 " fill-opacity="1" fill-rule="nonzero"/></g><path fill="#dc5230" d="M 253.855469 119.625 C 253.855469 120.316406 253.820312 121.007812 253.753906 121.695312 C 253.683594 122.382812 253.582031 123.066406 253.449219 123.746094 C 253.3125 124.421875 253.144531 125.09375 252.945312 125.757812 C 252.742188 126.417969 252.511719 127.070312 252.246094 127.707031 C 251.980469 128.347656 251.683594 128.972656 251.359375 129.582031 C 251.03125 130.191406 250.675781 130.785156 250.292969 131.359375 C 249.910156 131.9375 249.496094 132.492188 249.058594 133.027344 C 248.621094 133.5625 248.15625 134.074219 247.667969 134.5625 C 247.175781 135.050781 246.664062 135.515625 246.128906 135.953125 C 245.59375 136.394531 245.039062 136.804688 244.464844 137.1875 C 243.890625 137.574219 243.296875 137.929688 242.6875 138.253906 C 242.078125 138.582031 241.453125 138.875 240.8125 139.140625 C 240.171875 139.40625 239.523438 139.640625 238.859375 139.839844 C 238.199219 140.039062 237.527344 140.207031 236.847656 140.34375 C 236.171875 140.476562 235.488281 140.578125 234.796875 140.648438 C 234.109375 140.714844 233.417969 140.75 232.726562 140.75 C 232.035156 140.75 231.347656 140.714844 230.65625 140.648438 C 229.96875 140.578125 229.285156 140.476562 228.605469 140.34375 C 227.929688 140.207031 227.257812 140.039062 226.59375 139.839844 C 225.933594 139.640625 225.28125 139.40625 224.644531 139.140625 C 224.003906 138.875 223.378906 138.582031 222.769531 138.253906 C 222.160156 137.929688 221.566406 137.574219 220.992188 137.1875 C 220.414062 136.804688 219.859375 136.394531 219.324219 135.953125 C 218.792969 135.515625 218.277344 135.050781 217.789062 134.5625 C 217.300781 134.074219 216.835938 133.5625 216.398438 133.027344 C 215.957031 132.492188 215.546875 131.9375 215.164062 131.359375 C 214.777344 130.785156 214.421875 130.191406 214.097656 129.582031 C 213.769531 128.972656 213.476562 128.347656 213.210938 127.707031 C 212.945312 127.070312 212.710938 126.417969 212.511719 125.757812 C 212.3125 125.09375 212.144531 124.421875 212.007812 123.746094 C 211.875 123.066406 211.773438 122.382812 211.703125 121.695312 C 211.636719 121.007812 211.601562 120.316406 211.601562 119.625 C 211.601562 118.933594 211.636719 118.242188 211.703125 117.554688 C 211.773438 116.863281 211.875 116.179688 212.007812 115.503906 C 212.144531 114.824219 212.3125 114.152344 212.511719 113.492188 C 212.710938 112.828125 212.945312 112.179688 213.210938 111.539062 C 213.476562 110.898438 213.769531 110.277344 214.097656 109.664062 C 214.421875 109.054688 214.777344 108.460938 215.164062 107.886719 C 215.546875 107.3125 215.957031 106.757812 216.398438 106.222656 C 216.835938 105.6875 217.300781 105.175781 217.789062 104.6875 C 218.277344 104.195312 218.792969 103.730469 219.324219 103.292969 C 219.859375 102.855469 220.414062 102.441406 220.992188 102.058594 C 221.566406 101.675781 222.160156 101.320312 222.769531 100.992188 C 223.378906 100.667969 224.003906 100.371094 224.644531 100.105469 C 225.28125 99.839844 225.933594 99.609375 226.59375 99.40625 C 227.257812 99.207031 227.929688 99.039062 228.605469 98.902344 C 229.285156 98.769531 229.96875 98.667969 230.65625 98.601562 C 231.347656 98.53125 232.035156 98.5 232.726562 98.5 C 233.417969 98.5 234.109375 98.53125 234.796875 98.601562 C 235.488281 98.667969 236.171875 98.769531 236.847656 98.902344 C 237.527344 99.039062 238.199219 99.207031 238.859375 99.40625 C 239.523438 99.609375 240.171875 99.839844 240.8125 100.105469 C 241.453125 100.371094 242.078125 100.667969 242.6875 100.992188 C 243.296875 101.320312 243.890625 101.675781 244.464844 102.058594 C 245.039062 102.441406 245.59375 102.855469 246.128906 103.292969 C 246.664062 103.730469 247.175781 104.195312 247.667969 104.6875 C 248.15625 105.175781 248.621094 105.6875 249.058594 106.222656 C 249.496094 106.757812 249.910156 107.3125 250.292969 107.886719 C 250.675781 108.460938 251.03125 109.054688 251.359375 109.664062 C 251.683594 110.277344 251.980469 110.898438 252.246094 111.539062 C 252.511719 112.179688 252.742188 112.828125 252.945312 113.492188 C 253.144531 114.152344 253.3125 114.824219 253.449219 115.503906 C 253.582031 116.179688 253.683594 116.863281 253.75 117.554688 C 253.820312 118.242188 253.855469 118.933594 253.855469 119.625 Z M 253.855469 119.625 " fill-opacity="1" fill-rule="nonzero"/><path fill="#dc5230" d="M 281.75 405.402344 L 73.425781 405.402344 C 63.417969 405.402344 55.226562 413.589844 55.226562 423.601562 C 55.226562 433.613281 63.417969 441.800781 73.425781 441.800781 L 281.746094 441.800781 C 291.757812 441.796875 291.757812 405.402344 281.75 405.402344 Z M 281.75 405.402344 " fill-opacity="1" fill-rule="nonzero"/></svg>