<svg xmlns="http://www.w3.org/2000/svg" xmlns:xlink="http://www.w3.org/1999/xlink" width="794" zoomAndPan="magnify" viewBox="0 0 594.95996 595.499999" height="794" preserveAspectRatio="xMidYMid meet" version="1.0"><defs><clipPath id="90e1da97c6"><path d="M 115.46875 0 L 479.660156 0 L 479.660156 594 L 115.46875 594 Z M 115.46875 0 " clip-rule="nonzero"/></clipPath></defs><g clip-path="url(#90e1da97c6)"><path fill="#dc5230" d="M 297.617188 0.648438 C 305.726562 0.648438 312.75 3.347656 318.15625 9.292969 C 325.722656 16.320312 328.425781 25.507812 327.34375 35.777344 C 326.804688 37.941406 326.265625 40.101562 325.722656 42.804688 C 325.722656 42.804688 325.722656 42.804688 326.265625 42.804688 C 327.886719 41.726562 328.964844 41.726562 330.046875 42.265625 C 332.210938 43.347656 331.667969 47.128906 331.128906 49.292969 C 330.589844 54.15625 328.964844 58.480469 326.804688 62.265625 C 326.265625 63.34375 325.183594 63.886719 323.5625 64.425781 C 323.019531 64.425781 323.019531 64.425781 323.019531 64.425781 C 321.941406 70.371094 321.398438 74.15625 320.859375 76.316406 C 320.859375 81.179688 320.320312 87.128906 324.101562 90.910156 C 324.101562 90.910156 324.640625 90.910156 324.640625 91.449219 C 330.589844 94.152344 335.992188 97.398438 340.859375 101.722656 C 341.398438 101.722656 341.398438 101.722656 341.398438 101.722656 C 341.398438 101.722656 341.398438 101.722656 341.9375 101.722656 C 357.074219 91.449219 377.070312 91.449219 393.285156 99.558594 C 393.285156 99.558594 393.828125 99.558594 393.828125 99.558594 C 393.828125 99.558594 393.828125 99.558594 394.367188 99.558594 C 400.3125 94.695312 407.878906 93.074219 415.988281 93.613281 C 420.851562 94.152344 425.714844 96.316406 430.582031 100.097656 C 431.121094 100.097656 431.121094 100.097656 431.121094 99.558594 C 430.039062 94.152344 429.5 88.75 430.039062 83.34375 C 431.121094 77.9375 431.664062 73.074219 431.121094 68.210938 C 430.039062 62.265625 428.417969 57.398438 425.175781 51.996094 C 424.09375 50.371094 422.472656 48.210938 420.851562 46.589844 C 420.3125 46.050781 419.769531 45.507812 419.230469 46.050781 C 415.445312 47.128906 412.746094 47.128906 409.5 46.589844 C 409.5 46.589844 408.960938 46.589844 408.960938 46.589844 C 407.878906 48.75 405.71875 49.832031 402.476562 49.292969 C 402.476562 49.292969 401.933594 49.292969 401.933594 49.292969 C 401.394531 49.292969 401.394531 49.832031 400.851562 49.832031 C 399.773438 51.996094 398.691406 53.617188 396.53125 54.15625 C 392.746094 56.320312 391.125 53.074219 391.125 49.832031 C 391.125 49.292969 390.582031 48.75 390.042969 48.75 C 386.261719 49.292969 384.636719 47.671875 384.097656 43.886719 C 384.097656 43.347656 384.097656 43.347656 383.558594 43.347656 C 381.9375 41.726562 380.855469 40.644531 381.9375 37.402344 C 384.097656 31.996094 386.800781 26.589844 390.042969 21.1875 C 391.125 19.023438 392.746094 19.023438 394.90625 19.023438 C 401.933594 19.5625 405.175781 20.105469 405.175781 20.105469 C 414.90625 21.1875 424.636719 23.886719 433.285156 28.210938 C 434.363281 28.753906 435.445312 29.832031 436.527344 31.457031 C 441.933594 40.101562 447.335938 48.75 453.824219 57.398438 C 464.09375 70.371094 472.742188 83.34375 474.902344 99.558594 C 475.441406 103.34375 475.984375 106.585938 476.523438 109.289062 C 477.066406 112.53125 478.144531 115.234375 479.226562 118.476562 C 479.765625 121.71875 479.765625 124.421875 477.605469 127.125 C 476.523438 128.207031 474.902344 129.828125 471.660156 130.90625 C 470.578125 131.988281 468.417969 133.070312 465.714844 135.230469 C 463.550781 136.3125 460.847656 137.933594 456.523438 139.554688 C 453.28125 141.175781 450.578125 141.71875 447.335938 142.257812 C 446.796875 142.257812 446.796875 142.257812 446.796875 142.257812 C 437.066406 149.285156 427.339844 153.609375 418.148438 155.230469 C 407.339844 157.394531 397.070312 156.851562 386.800781 154.691406 C 386.261719 154.691406 386.261719 155.230469 386.261719 155.230469 C 382.476562 167.664062 376.53125 179.554688 368.964844 190.363281 C 363.558594 198.472656 359.773438 202.796875 356.53125 209.820312 C 356.53125 209.820312 356.53125 210.363281 356.53125 210.902344 C 354.910156 216.847656 353.828125 222.253906 351.667969 228.199219 C 350.046875 234.144531 348.425781 237.386719 347.882812 242.792969 C 347.34375 248.199219 346.804688 253.0625 347.882812 259.007812 C 347.882812 261.167969 348.425781 262.789062 348.964844 263.871094 C 348.964844 264.414062 349.503906 264.414062 349.503906 264.953125 C 350.046875 266.035156 352.75 268.738281 353.289062 270.898438 C 357.613281 279.546875 359.234375 289.277344 360.316406 299.003906 C 360.316406 300.085938 360.855469 301.167969 362.476562 303.328125 C 369.503906 313.597656 374.367188 323.867188 377.613281 334.136719 C 384.097656 355.757812 386.800781 379.539062 382.476562 401.160156 C 381.9375 404.402344 380.855469 407.644531 380.3125 410.890625 C 379.773438 411.96875 379.773438 413.050781 379.773438 414.132812 C 379.773438 414.671875 380.3125 416.292969 380.855469 419.535156 C 381.9375 423.859375 381.9375 428.183594 381.394531 433.050781 C 381.394531 433.589844 381.9375 434.128906 381.9375 435.210938 C 383.558594 438.453125 384.636719 441.15625 385.71875 443.859375 C 388.960938 453.046875 391.125 462.777344 391.664062 472.507812 C 392.207031 488.179688 390.042969 503.855469 387.882812 520.609375 C 387.339844 528.179688 386.800781 534.125 386.261719 538.988281 C 386.261719 543.851562 387.339844 549.257812 390.042969 554.664062 C 390.042969 555.203125 390.582031 555.203125 390.582031 555.203125 L 393.828125 558.445312 C 395.988281 561.691406 398.691406 564.390625 400.3125 567.09375 C 404.636719 571.960938 409.5 574.121094 417.070312 577.363281 C 418.691406 578.445312 420.851562 578.445312 422.472656 579.527344 C 424.636719 581.148438 425.175781 586.550781 424.09375 589.253906 C 423.554688 590.875 421.933594 591.417969 419.769531 591.957031 C 419.769531 591.957031 419.230469 591.957031 419.230469 591.957031 C 417.070312 593.039062 414.367188 593.039062 411.664062 593.039062 C 411.664062 593.039062 411.664062 593.039062 411.121094 593.039062 C 407.339844 594.121094 403.554688 594.121094 400.3125 592.5 C 399.773438 592.5 399.773438 592.5 399.230469 592.5 C 394.367188 591.957031 389.503906 591.957031 386.261719 588.175781 C 384.097656 585.472656 382.476562 583.851562 379.234375 584.390625 C 374.910156 584.390625 369.503906 583.851562 365.71875 582.769531 C 360.316406 580.605469 360.855469 574.660156 362.476562 570.335938 C 363.558594 564.390625 364.640625 560.609375 364.640625 555.742188 C 364.640625 553.582031 364.640625 551.960938 364.640625 550.878906 C 365.179688 544.933594 363.558594 538.449219 361.9375 532.503906 C 360.855469 526.015625 358.695312 519.53125 356.53125 512.503906 C 355.449219 509.800781 354.371094 506.558594 352.207031 503.855469 C 346.261719 494.125 342.480469 484.398438 342.480469 473.046875 C 342.480469 463.859375 343.558594 454.128906 344.640625 446.5625 C 345.179688 444.398438 344.640625 442.238281 343.558594 440.617188 C 338.695312 431.429688 334.910156 421.160156 329.507812 407.644531 C 328.964844 405.484375 327.886719 403.320312 326.804688 401.699219 C 324.101562 398.457031 321.941406 395.214844 320.320312 393.050781 C 308.96875 378.457031 303.023438 361.703125 301.941406 343.324219 C 301.402344 339.542969 301.402344 337.378906 301.402344 336.300781 C 301.402344 336.300781 300.859375 335.757812 300.859375 335.757812 C 300.859375 335.757812 300.859375 335.757812 300.859375 336.300781 C 299.777344 336.300781 298.699219 336.300781 297.617188 336.300781 C 296.535156 336.300781 295.457031 336.300781 294.375 336.300781 C 294.375 335.757812 294.375 335.757812 294.375 335.757812 C 294.375 335.757812 294.375 336.300781 294.375 336.300781 C 294.375 337.378906 293.832031 339.542969 293.832031 343.324219 C 292.210938 361.703125 286.265625 378.457031 275.457031 393.050781 C 273.835938 395.214844 271.671875 398.457031 268.96875 401.699219 C 267.347656 403.320312 266.269531 405.484375 265.726562 407.644531 C 260.863281 421.160156 257.078125 431.429688 251.675781 440.617188 C 250.59375 442.238281 250.59375 444.398438 250.59375 446.5625 C 251.675781 454.128906 253.296875 463.859375 253.296875 473.046875 C 252.753906 484.398438 249.511719 494.125 243.027344 503.855469 C 240.863281 506.558594 239.785156 509.800781 238.703125 512.503906 C 236.539062 519.53125 234.917969 526.015625 233.296875 532.503906 C 231.675781 538.449219 230.59375 544.933594 231.136719 550.878906 C 231.136719 551.960938 231.136719 553.582031 230.59375 555.742188 C 230.59375 560.609375 231.675781 564.390625 233.296875 570.335938 C 234.378906 574.660156 234.917969 580.605469 229.515625 582.769531 C 225.730469 583.851562 220.867188 584.390625 216.542969 584.390625 C 212.757812 583.851562 211.675781 585.472656 208.972656 588.175781 C 205.730469 591.957031 200.867188 591.957031 196.003906 592.5 C 195.460938 592.5 195.460938 592.5 194.921875 592.5 C 191.679688 594.121094 187.894531 594.121094 184.652344 593.039062 C 184.113281 593.039062 183.570312 593.039062 183.570312 593.039062 C 180.867188 593.039062 178.707031 593.039062 176.542969 591.957031 C 176.003906 591.957031 176.003906 591.957031 175.464844 591.957031 C 173.300781 591.417969 172.21875 590.875 171.679688 589.253906 C 170.597656 586.550781 170.597656 581.148438 173.300781 579.527344 C 174.921875 578.445312 177.085938 578.445312 178.707031 577.363281 C 186.273438 574.121094 190.597656 571.960938 194.921875 567.09375 C 197.082031 564.390625 199.246094 561.691406 201.40625 558.445312 C 201.40625 558.445312 201.40625 558.445312 201.949219 558.445312 L 205.191406 555.203125 C 207.894531 549.257812 208.972656 543.851562 208.972656 538.988281 C 208.972656 534.125 208.433594 528.179688 207.351562 520.609375 C 205.191406 503.855469 203.027344 488.179688 204.109375 472.507812 C 204.652344 462.777344 206.8125 453.046875 210.054688 443.859375 C 211.136719 441.15625 212.21875 438.453125 213.296875 434.671875 C 213.839844 434.128906 213.839844 433.589844 213.839844 433.050781 C 213.839844 428.183594 213.839844 423.859375 214.378906 419.535156 C 215.460938 416.292969 215.460938 414.671875 215.460938 414.132812 C 215.460938 413.050781 215.460938 411.96875 215.460938 411.429688 C 214.378906 407.644531 213.839844 404.402344 213.296875 401.160156 C 208.972656 379.539062 211.675781 355.757812 217.621094 334.136719 C 220.867188 323.867188 226.269531 313.597656 233.296875 303.328125 C 234.378906 301.167969 234.917969 300.085938 235.460938 299.003906 C 236 289.277344 237.621094 279.546875 241.945312 270.898438 C 243.027344 268.738281 245.1875 266.035156 246.269531 264.953125 C 246.269531 264.414062 246.269531 264.414062 246.269531 263.871094 C 246.808594 262.789062 247.351562 261.167969 247.890625 259.007812 C 248.429688 253.0625 248.429688 248.199219 247.351562 242.792969 C 246.808594 237.386719 245.1875 234.144531 243.566406 228.199219 C 241.40625 222.253906 240.324219 216.847656 239.242188 210.902344 C 239.242188 210.363281 239.242188 209.820312 238.703125 209.820312 C 235.460938 202.796875 231.675781 198.472656 226.269531 190.363281 C 218.703125 179.554688 213.296875 167.664062 209.515625 155.230469 C 208.972656 155.230469 208.972656 154.691406 208.972656 154.691406 C 208.433594 154.691406 208.433594 154.691406 208.433594 154.691406 C 198.164062 156.851562 187.894531 157.394531 177.625 155.230469 C 167.894531 153.070312 158.167969 149.285156 148.980469 142.257812 C 148.4375 142.257812 148.4375 142.257812 148.4375 142.257812 C 144.65625 141.71875 142.492188 141.175781 138.710938 139.554688 C 134.925781 137.933594 131.683594 136.3125 130.0625 135.230469 C 127.359375 133.070312 125.195312 131.988281 123.574219 130.90625 C 120.871094 129.828125 118.710938 128.207031 117.628906 127.125 C 116.007812 124.421875 115.46875 121.71875 116.546875 118.476562 C 117.628906 115.234375 118.710938 112.53125 118.710938 109.289062 C 119.25 106.585938 119.792969 103.34375 120.332031 99.558594 C 123.035156 83.34375 131.683594 70.371094 141.410156 57.398438 C 147.898438 48.75 153.84375 40.101562 158.707031 31.457031 C 159.789062 29.832031 160.871094 28.753906 161.949219 28.210938 C 171.140625 23.886719 180.328125 21.1875 190.058594 20.105469 C 190.058594 20.105469 193.839844 19.5625 200.867188 19.023438 C 203.027344 19.023438 204.109375 19.023438 205.191406 21.1875 C 208.972656 26.589844 211.675781 31.996094 213.839844 37.402344 C 214.921875 40.644531 213.839844 41.726562 211.675781 43.347656 C 211.675781 43.347656 211.675781 43.347656 211.675781 43.886719 C 211.136719 47.671875 208.972656 49.292969 205.730469 48.75 C 205.191406 48.75 204.652344 49.292969 204.652344 49.832031 C 204.652344 53.074219 203.027344 56.320312 199.246094 54.15625 C 197.082031 53.617188 195.460938 51.996094 194.382812 49.832031 C 194.382812 49.832031 193.839844 49.292969 193.300781 49.292969 C 190.058594 49.832031 187.894531 48.75 186.8125 46.589844 C 186.273438 46.589844 186.273438 46.589844 185.734375 46.589844 C 183.03125 47.128906 179.789062 47.128906 176.542969 46.050781 C 176.003906 45.507812 174.921875 46.050781 174.382812 46.589844 C 172.761719 48.210938 171.679688 50.371094 170.597656 51.996094 C 167.355469 56.859375 165.195312 62.265625 164.652344 68.210938 C 164.113281 73.074219 164.652344 77.9375 165.195312 83.34375 C 165.734375 88.75 165.734375 94.152344 164.652344 99.558594 C 164.652344 100.097656 164.652344 100.097656 164.652344 100.097656 C 169.519531 96.316406 174.382812 94.152344 179.789062 93.613281 C 187.894531 93.074219 194.921875 94.695312 201.40625 99.558594 C 201.40625 99.558594 201.40625 99.558594 201.949219 99.558594 C 218.164062 91.449219 238.160156 91.449219 253.835938 101.722656 C 254.375 101.722656 254.375 101.722656 254.375 101.722656 C 259.242188 97.398438 265.1875 94.152344 270.59375 91.449219 C 271.132812 90.910156 271.132812 90.910156 271.671875 90.910156 C 275.457031 87.128906 274.917969 81.179688 274.375 76.316406 C 274.375 74.15625 273.835938 70.371094 272.753906 64.425781 C 272.214844 64.425781 272.214844 64.425781 272.214844 64.425781 C 270.59375 63.886719 269.511719 63.34375 268.429688 62.265625 C 266.269531 58.480469 265.1875 54.15625 264.105469 49.292969 C 264.105469 47.128906 263.566406 43.347656 265.1875 42.265625 C 266.269531 41.726562 267.890625 41.726562 268.96875 42.804688 C 269.511719 42.804688 269.511719 42.804688 269.511719 42.804688 C 268.96875 40.101562 268.429688 37.941406 268.429688 35.777344 C 266.808594 25.507812 270.050781 16.320312 277.078125 9.292969 C 282.484375 3.347656 290.050781 0.648438 297.617188 0.648438 Z M 297.617188 0.648438 " fill-opacity="1" fill-rule="evenodd"/></g></svg>