<svg xmlns="http://www.w3.org/2000/svg" xmlns:xlink="http://www.w3.org/1999/xlink" width="794" zoomAndPan="magnify" viewBox="0 0 594.95996 595.499999" height="794" preserveAspectRatio="xMidYMid meet" version="1.0"><defs><clipPath id="706e544170"><path d="M 73.089844 0 L 445 0 L 445 595 L 73.089844 595 Z M 73.089844 0 " clip-rule="nonzero"/></clipPath><clipPath id="02b77b4a49"><path d="M 349 157 L 521.960938 157 L 521.960938 199 L 349 199 Z M 349 157 " clip-rule="nonzero"/></clipPath></defs><g clip-path="url(#706e544170)"><path fill="#dc5230" d="M 323.132812 186.597656 C 323.132812 186.460938 323.132812 186.460938 323.132812 186.460938 C 317.824219 168.765625 304.757812 156.925781 304.214844 156.515625 C 301.222656 153.796875 296.59375 154.066406 294.007812 157.0625 C 291.285156 160.054688 291.558594 164.683594 294.550781 167.269531 C 294.6875 167.40625 305.167969 176.933594 309.25 190.542969 C 335.65625 287.039062 282.03125 350.464844 281.484375 351.007812 C 280.667969 351.960938 280.125 353.050781 279.851562 354.136719 C 267.332031 409.941406 265.835938 491.601562 265.699219 495.003906 C 265.699219 497.042969 266.515625 499.085938 268.148438 500.582031 C 279.445312 510.792969 287.746094 523.3125 292.644531 537.875 C 295.914062 547.675781 294.28125 558.15625 288.292969 566.457031 C 282.167969 575.03125 272.640625 579.929688 262.160156 579.929688 L 258.757812 579.929688 C 256.308594 579.929688 253.855469 579.113281 251.953125 577.480469 C 243.242188 570.402344 230.71875 569.996094 221.601562 576.390625 L 219.289062 578.027344 C 217.519531 579.25 215.339844 579.929688 213.164062 579.929688 L 92.167969 579.929688 C 89.855469 579.929688 88.085938 578.160156 88.085938 575.847656 C 88.085938 573.941406 89.445312 572.171875 91.351562 571.902344 C 141.574219 562.511719 173.964844 538.964844 192.203125 521 C 203.5 509.839844 208.535156 493.640625 205.675781 477.71875 C 174.78125 309.222656 188.390625 148.894531 188.527344 147.261719 C 188.527344 146.71875 188.527344 146.171875 188.527344 145.765625 C 179.816406 74.855469 230.3125 67.507812 232.351562 67.234375 C 233.035156 67.097656 233.714844 66.960938 234.257812 66.691406 L 289.242188 43.417969 C 334.839844 24.226562 382.882812 14.425781 432.285156 14.425781 L 436.914062 14.425781 C 440.863281 14.425781 444.128906 11.160156 444.128906 7.214844 C 444.128906 3.265625 440.863281 0 436.914062 0 L 431.878906 0 C 380.566406 0 330.484375 10.070312 283.121094 30.078125 L 229.085938 53.078125 C 224.050781 53.894531 203.5 58.386719 188.527344 77.578125 C 175.191406 94.589844 170.15625 117.863281 173.558594 146.855469 C 172.605469 159.238281 160.761719 315.894531 190.976562 480.441406 C 193.019531 491.601562 189.480469 502.898438 181.585938 510.792969 C 164.847656 527.394531 134.902344 549.035156 88.222656 557.746094 C 79.511719 559.378906 73.113281 567.136719 73.113281 575.984375 C 73.113281 586.191406 81.414062 594.628906 91.757812 594.628906 L 212.753906 594.628906 C 217.925781 594.628906 222.960938 593.132812 227.179688 590.140625 L 229.496094 588.503906 C 233.441406 585.785156 238.75 586.054688 242.425781 589.050781 C 246.914062 592.726562 252.632812 594.765625 258.347656 594.765625 L 261.75 594.765625 C 276.996094 594.765625 290.875 587.6875 299.722656 575.304688 C 308.570312 563.054688 310.882812 547.8125 306.121094 533.519531 C 300.8125 517.597656 292.101562 503.714844 280.125 492.28125 C 280.53125 476.628906 282.847656 407.488281 293.464844 359.308594 C 302.171875 348.421875 349.671875 283.773438 323.132812 186.597656 Z M 323.132812 186.597656 " fill-opacity="1" fill-rule="nonzero"/></g><g clip-path="url(#02b77b4a49)"><path fill="#dc5230" d="M 509.867188 158.152344 C 507.144531 159.921875 504.285156 161.28125 501.425781 162.507812 C 454.472656 181.695312 396.902344 184.554688 357.023438 183.738281 C 353.074219 183.601562 349.671875 186.867188 349.535156 190.816406 C 349.402344 194.761719 352.667969 198.164062 356.613281 198.300781 C 360.699219 198.4375 364.917969 198.4375 369.40625 198.4375 C 409.695312 198.4375 462.5 194.082031 507.007812 175.980469 C 510.816406 174.484375 514.355469 172.578125 517.757812 170.398438 C 521.160156 168.222656 522.113281 163.730469 519.9375 160.328125 C 517.757812 157.0625 513.269531 156.109375 509.867188 158.152344 Z M 509.867188 158.152344 " fill-opacity="1" fill-rule="nonzero"/></g><path fill="#dc5230" d="M 234.667969 225.386719 C 230.71875 224.839844 227.046875 227.699219 226.5 231.644531 C 218.199219 296.429688 252.359375 332.363281 253.855469 333.859375 C 255.21875 335.355469 257.125 336.035156 259.027344 336.035156 C 260.796875 336.035156 262.703125 335.355469 264.066406 333.996094 C 266.921875 331.136719 267.058594 326.644531 264.199219 323.785156 C 263.929688 323.515625 233.441406 291.394531 240.925781 233.414062 C 241.472656 229.605469 238.613281 225.929688 234.667969 225.386719 Z M 234.667969 225.386719 " fill-opacity="1" fill-rule="nonzero"/><path fill="#dc5230" d="M 451.070312 84.246094 C 447.121094 84.246094 443.855469 87.515625 443.855469 91.460938 C 443.855469 95.40625 447.121094 98.675781 451.070312 98.675781 C 458.828125 98.675781 466.722656 99.082031 474.613281 100.035156 C 474.886719 100.035156 475.160156 100.035156 475.429688 100.035156 C 479.105469 100.035156 482.238281 97.3125 482.644531 93.636719 C 483.054688 89.691406 480.195312 86.015625 476.246094 85.609375 C 467.808594 84.792969 459.371094 84.246094 451.070312 84.246094 Z M 451.070312 84.246094 " fill-opacity="1" fill-rule="nonzero"/><path fill="#dc5230" d="M 311.429688 122.765625 C 308.296875 125.351562 307.890625 129.839844 310.476562 132.972656 C 311.972656 134.742188 314.015625 135.558594 316.054688 135.558594 C 317.6875 135.558594 319.324219 135.011719 320.683594 133.925781 C 321.089844 133.652344 357.160156 104.390625 414.050781 99.355469 C 417.996094 98.945312 420.992188 95.542969 420.582031 91.460938 C 420.175781 87.511719 416.769531 84.519531 412.6875 84.925781 C 351.441406 90.507812 313.0625 121.539062 311.429688 122.765625 Z M 311.429688 122.765625 " fill-opacity="1" fill-rule="nonzero"/></svg>