<svg xmlns="http://www.w3.org/2000/svg" xmlns:xlink="http://www.w3.org/1999/xlink" width="794" zoomAndPan="magnify" viewBox="0 0 594.95996 595.499999" height="794" preserveAspectRatio="xMidYMid meet" version="1.0"><defs><clipPath id="de1d29d6b5"><path d="M 0.230469 0 L 594.691406 0 L 594.691406 594.777344 L 0.230469 594.777344 Z M 0.230469 0 " clip-rule="nonzero"/></clipPath><clipPath id="a78932f30c"><path d="M 297.617188 594.777344 L 0.230469 297.386719 L 148.921875 297.386719 L 148.921875 0 L 446.3125 0 L 446.3125 297.386719 L 595.003906 297.386719 Z M 297.617188 594.777344 " clip-rule="nonzero"/></clipPath><clipPath id="dc23c4c1d9"><path d="M 0.230469 0 L 594.691406 0 L 594.691406 594.777344 L 0.230469 594.777344 Z M 0.230469 0 " clip-rule="nonzero"/></clipPath><clipPath id="8a8ababe0d"><path d="M 297.617188 594.777344 L 0.230469 297.386719 L 148.921875 297.386719 L 148.921875 0 L 446.3125 0 L 446.3125 297.386719 L 595.003906 297.386719 Z M 297.617188 594.777344 " clip-rule="nonzero"/></clipPath><clipPath id="e80f0376f7"><rect x="0" width="595" y="0" height="595"/></clipPath></defs><g clip-path="url(#de1d29d6b5)"><g clip-path="url(#a78932f30c)"><g transform="matrix(1, 0, 0, 1, 0, -0.000000000000086412)"><g clip-path="url(#e80f0376f7)"><g clip-path="url(#dc23c4c1d9)"><g clip-path="url(#8a8ababe0d)"><path fill="#dc5230" d="M 0.230469 0 L 595.003906 0 L 595.003906 594.777344 L 0.230469 594.777344 Z M 0.230469 0 " fill-opacity="1" fill-rule="nonzero"/></g></g></g></g></g></g></svg>