<svg xmlns="http://www.w3.org/2000/svg" xmlns:xlink="http://www.w3.org/1999/xlink" width="794" zoomAndPan="magnify" viewBox="0 0 594.95996 595.499999" height="794" preserveAspectRatio="xMidYMid meet" version="1.0"><defs><clipPath id="42e863b3bf"><path d="M 0.230469 0 L 594.691406 0 L 594.691406 594.765625 L 0.230469 594.765625 Z M 0.230469 0 " clip-rule="nonzero"/></clipPath><clipPath id="2f1f3ac047"><path d="M 297.609375 -0.0117188 L 594.996094 297.378906 L 446.300781 297.378906 L 446.300781 594.765625 L 148.914062 594.765625 L 148.914062 297.378906 L 0.21875 297.378906 Z M 297.609375 -0.0117188 " clip-rule="nonzero"/></clipPath><clipPath id="e2f066f6ad"><path d="M 0.230469 0 L 594.691406 0 L 594.691406 594.765625 L 0.230469 594.765625 Z M 0.230469 0 " clip-rule="nonzero"/></clipPath><clipPath id="a55f7a4a74"><path d="M 297.609375 -0.0117188 L 594.996094 297.378906 L 446.300781 297.378906 L 446.300781 594.765625 L 148.914062 594.765625 L 148.914062 297.378906 L 0.21875 297.378906 Z M 297.609375 -0.0117188 " clip-rule="nonzero"/></clipPath><clipPath id="3badaf7a81"><rect x="0" width="595" y="0" height="595"/></clipPath></defs><g clip-path="url(#42e863b3bf)"><g clip-path="url(#2f1f3ac047)"><g transform="matrix(1, 0, 0, 1, 0, -0.000000000000086412)"><g clip-path="url(#3badaf7a81)"><g clip-path="url(#e2f066f6ad)"><g clip-path="url(#a55f7a4a74)"><path fill="#dc5230" d="M 594.996094 594.765625 L 0.21875 594.765625 L 0.21875 -0.0117188 L 594.996094 -0.0117188 Z M 594.996094 594.765625 " fill-opacity="1" fill-rule="nonzero"/></g></g></g></g></g></g></svg>