<svg xmlns="http://www.w3.org/2000/svg" xmlns:xlink="http://www.w3.org/1999/xlink" width="794" zoomAndPan="magnify" viewBox="0 0 594.95996 595.499999" height="794" preserveAspectRatio="xMidYMid meet" version="1.0"><defs><clipPath id="429a4f9a3b"><path d="M 301.140625 185.179688 L 428.941406 185.179688 L 428.941406 329.886719 L 301.140625 329.886719 Z M 301.140625 185.179688 " clip-rule="nonzero"/></clipPath><clipPath id="35128d7f9d"><path d="M 316.566406 511.320312 L 371.65625 511.320312 L 371.65625 594.757812 L 316.566406 594.757812 Z M 316.566406 511.320312 " clip-rule="nonzero"/></clipPath></defs><path fill="#dc5230" d="M 289.28125 194.148438 C 288.074219 194.558594 286.820312 194.863281 285.535156 195.054688 C 278.359375 196.160156 267.398438 198.515625 255.796875 201.003906 C 233.285156 205.84375 210.007812 210.847656 198.167969 210.605469 C 188.328125 210.410156 179.839844 206.050781 174.863281 198.648438 C 169.929688 191.3125 168.984375 181.75 172.316406 173.066406 C 174.554688 167.246094 186.066406 145.621094 203.371094 113.292969 C 215.660156 90.355469 228.355469 66.628906 231.722656 59.1875 C 232.242188 58.046875 232.628906 57.101562 232.933594 56.324219 C 230.753906 56.613281 227.9375 57.109375 225.316406 57.570312 C 222.34375 58.09375 218.960938 58.695312 215.125 59.28125 C 212.226562 59.722656 209.5 60.191406 206.941406 60.632812 C 188.914062 63.734375 173.339844 66.410156 168.0625 42.664062 C 166.304688 34.734375 167.484375 24.160156 183.152344 18.847656 C 185.4375 18.074219 188.007812 17.394531 190.996094 16.773438 C 205.203125 13.824219 246.449219 5.265625 261.710938 2.179688 C 272.375 0.0195312 283.222656 3.46875 289.332031 10.960938 C 294.789062 17.652344 295.730469 26.617188 291.921875 35.5625 C 284.515625 52.976562 239.847656 134.40625 230.859375 149.996094 C 228.429688 154.21875 227.207031 156.933594 226.589844 158.617188 C 226.820312 158.585938 227.054688 158.554688 227.324219 158.511719 C 231.179688 157.925781 235.503906 156.765625 242.058594 155.011719 C 249.632812 152.980469 260.015625 150.199219 276.152344 146.535156 C 292.738281 142.773438 301.710938 152.382812 304.355469 161.757812 C 307.742188 173.773438 302.496094 189.660156 289.28125 194.140625 C 289.28125 194.140625 289.28125 194.140625 289.28125 194.148438 " fill-opacity="1" fill-rule="nonzero"/><g clip-path="url(#429a4f9a3b)"><path fill="#dc5230" d="M 378.488281 329.6875 C 377.578125 329.628906 376.667969 329.488281 375.773438 329.265625 C 370.746094 328.042969 362.898438 326.617188 354.574219 325.105469 C 338.441406 322.175781 321.753906 319.148438 314.015625 315.773438 C 307.589844 312.972656 303.1875 307.796875 301.921875 301.574219 C 300.667969 295.398438 302.640625 288.839844 307.195312 284.039062 C 310.253906 280.808594 323.703125 269.695312 343.882812 253.117188 C 358.195312 241.347656 373.007812 229.171875 377.25 225.1875 C 377.890625 224.578125 378.417969 224.0625 378.824219 223.632812 C 377.304688 223.230469 375.3125 222.792969 373.46875 222.386719 C 371.367188 221.929688 368.980469 221.398438 366.289062 220.738281 C 364.257812 220.246094 362.332031 219.8125 360.53125 219.40625 C 347.820312 216.554688 336.847656 214.082031 339.820312 197.019531 C 340.8125 191.316406 344.46875 184.675781 356.21875 185.4375 C 357.941406 185.542969 359.816406 185.792969 361.949219 186.199219 C 372.109375 188.117188 401.589844 193.683594 412.46875 195.796875 C 420.082031 197.273438 426.285156 202.488281 428.28125 209.085938 C 430.054688 214.96875 428.234375 221.128906 423.304688 225.984375 C 413.691406 235.441406 362.152344 276.925781 352.007812 284.75 C 349.265625 286.867188 347.722656 288.320312 346.855469 289.265625 C 347.011719 289.304688 347.183594 289.351562 347.367188 289.390625 C 350.066406 290.050781 353.226562 290.460938 358.019531 291.085938 C 363.558594 291.8125 371.144531 292.804688 382.777344 294.773438 C 394.71875 296.792969 398.007812 305.5625 397.207031 312.457031 C 396.175781 321.289062 388.410156 330.324219 378.488281 329.6875 " fill-opacity="1" fill-rule="nonzero"/></g><path fill="#dc5230" d="M 268.371094 487.019531 C 267.648438 486.910156 266.933594 486.730469 266.230469 486.496094 C 262.300781 485.171875 256.117188 483.496094 249.570312 481.710938 C 236.875 478.261719 223.742188 474.707031 217.792969 471.472656 C 212.847656 468.792969 209.679688 464.351562 209.09375 459.292969 C 208.511719 454.273438 210.53125 449.164062 214.503906 445.632812 C 217.175781 443.261719 228.699219 435.304688 245.960938 423.429688 C 258.210938 414.996094 270.886719 406.285156 274.546875 403.390625 C 275.105469 402.941406 275.558594 402.566406 275.917969 402.253906 C 274.730469 401.824219 273.175781 401.34375 271.71875 400.886719 C 270.070312 400.375 268.199219 399.789062 266.097656 399.082031 C 264.503906 398.546875 263 398.070312 261.585938 397.621094 C 251.613281 394.46875 243.003906 391.746094 246.554688 378.300781 C 247.746094 373.8125 251.117188 368.753906 260.457031 370.160156 C 261.832031 370.367188 263.3125 370.699219 264.992188 371.164062 C 272.976562 373.398438 296.171875 379.871094 304.730469 382.304688 C 310.707031 384.003906 315.316406 388.597656 316.449219 394.015625 C 317.464844 398.835938 315.597656 403.636719 311.316406 407.183594 C 302.976562 414.082031 258.941406 443.710938 250.285156 449.273438 C 247.949219 450.78125 246.613281 451.835938 245.859375 452.53125 C 245.976562 452.578125 246.125 452.621094 246.261719 452.667969 C 248.367188 453.378906 250.875 453.925781 254.652344 454.753906 C 259.039062 455.714844 265.042969 457.023438 274.195312 459.402344 C 283.601562 461.835938 285.636719 469.066406 284.519531 474.523438 C 283.097656 481.515625 276.261719 488.203125 268.371094 487.019531 " fill-opacity="1" fill-rule="nonzero"/><g clip-path="url(#35128d7f9d)"><path fill="#dc5230" d="M 365.1875 588.164062 C 364.699219 588.324219 364.207031 588.445312 363.695312 588.527344 C 360.847656 588.96875 356.496094 589.910156 351.902344 590.910156 C 342.976562 592.839844 333.746094 594.84375 329.050781 594.757812 C 325.148438 594.683594 321.765625 592.960938 319.789062 590.03125 C 317.832031 587.121094 317.445312 583.332031 318.765625 579.882812 C 319.652344 577.570312 324.207031 568.984375 331.046875 556.148438 C 335.902344 547.042969 340.921875 537.617188 342.25 534.667969 C 342.457031 534.210938 342.609375 533.835938 342.738281 533.53125 C 341.867188 533.644531 340.746094 533.84375 339.710938 534.027344 C 338.53125 534.238281 337.1875 534.480469 335.671875 534.710938 C 334.519531 534.894531 333.433594 535.078125 332.425781 535.257812 C 325.277344 536.496094 319.097656 537.566406 316.996094 528.15625 C 316.292969 525.007812 316.753906 520.816406 322.960938 518.699219 C 323.863281 518.386719 324.882812 518.117188 326.066406 517.867188 C 331.707031 516.691406 348.054688 513.265625 354.109375 512.027344 C 358.347656 511.164062 362.636719 512.523438 365.082031 515.492188 C 367.242188 518.144531 367.621094 521.699219 366.117188 525.25 C 363.191406 532.167969 345.53125 564.5 341.980469 570.6875 C 341.007812 572.367188 340.53125 573.441406 340.285156 574.109375 C 340.378906 574.101562 340.476562 574.085938 340.582031 574.070312 C 342.105469 573.828125 343.824219 573.371094 346.414062 572.667969 C 349.429688 571.863281 353.542969 570.75 359.941406 569.285156 C 366.511719 567.78125 370.082031 571.585938 371.132812 575.304688 C 372.492188 580.070312 370.421875 586.375 365.1875 588.164062 " fill-opacity="1" fill-rule="nonzero"/></g></svg>