<svg xmlns="http://www.w3.org/2000/svg" xmlns:xlink="http://www.w3.org/1999/xlink" width="794" zoomAndPan="magnify" viewBox="0 0 594.95996 595.499999" height="794" preserveAspectRatio="xMidYMid meet" version="1.0"><defs><clipPath id="8db7f55ca8"><path d="M 0.230469 45 L 410 45 L 410 555 L 0.230469 555 Z M 0.230469 45 " clip-rule="nonzero"/></clipPath></defs><g clip-path="url(#8db7f55ca8)"><path fill="#dc5230" d="M 409.820312 545.496094 L 409.820312 439.570312 C 409.824219 437.933594 409.761719 436.300781 409.632812 434.667969 C 409.507812 433.035156 409.316406 431.414062 409.066406 429.796875 C 408.8125 428.179688 408.496094 426.574219 408.117188 424.984375 C 407.738281 423.390625 407.296875 421.816406 406.796875 420.257812 C 406.296875 418.699219 405.734375 417.164062 405.113281 415.652344 C 404.492188 414.136719 403.8125 412.648438 403.074219 411.1875 C 402.335938 409.726562 401.542969 408.296875 400.691406 406.898438 C 399.84375 405.5 398.941406 404.136719 397.984375 402.808594 C 397.027344 401.480469 396.023438 400.191406 394.964844 398.941406 C 393.910156 397.691406 392.804688 396.484375 391.652344 395.320312 C 390.503906 394.15625 389.308594 393.042969 388.070312 391.972656 C 386.832031 390.902344 385.554688 389.878906 384.238281 388.910156 C 382.917969 387.941406 381.566406 387.023438 380.175781 386.15625 C 378.789062 385.292969 377.367188 384.484375 375.914062 383.730469 C 374.460938 382.976562 372.980469 382.28125 371.472656 381.640625 C 369.96875 381.003906 368.4375 380.425781 366.886719 379.90625 L 322.191406 364.9375 C 319.207031 363.9375 316.289062 362.773438 313.4375 361.445312 C 310.585938 360.117188 307.816406 358.628906 305.132812 356.988281 C 302.445312 355.347656 299.863281 353.5625 297.378906 351.628906 C 294.894531 349.695312 292.527344 347.628906 290.277344 345.429688 C 288.027344 343.230469 285.910156 340.914062 283.921875 338.472656 C 281.933594 336.035156 280.085938 333.492188 278.382812 330.847656 C 276.683594 328.199219 275.136719 325.464844 273.742188 322.644531 C 272.347656 319.824219 271.117188 316.933594 270.050781 313.972656 C 307.222656 278.050781 331.15625 216.945312 331.15625 172.023438 C 331.15625 169.960938 331.105469 167.902344 331.003906 165.839844 C 330.902344 163.78125 330.75 161.722656 330.546875 159.671875 C 330.347656 157.617188 330.09375 155.570312 329.792969 153.53125 C 329.488281 151.492188 329.136719 149.460938 328.734375 147.4375 C 328.332031 145.414062 327.878906 143.402344 327.378906 141.402344 C 326.878906 139.398438 326.328125 137.414062 325.726562 135.4375 C 325.128906 133.464844 324.484375 131.507812 323.789062 129.566406 C 323.09375 127.625 322.351562 125.699219 321.5625 123.792969 C 320.773438 121.886719 319.9375 120.003906 319.054688 118.136719 C 318.171875 116.273438 317.246094 114.433594 316.273438 112.613281 C 315.300781 110.792969 314.285156 109 313.222656 107.230469 C 312.164062 105.460938 311.0625 103.71875 309.914062 102.003906 C 308.769531 100.289062 307.582031 98.601562 306.351562 96.945312 C 305.125 95.289062 303.855469 93.664062 302.546875 92.070312 C 301.238281 90.476562 299.890625 88.914062 298.507812 87.386719 C 297.121094 85.855469 295.699219 84.363281 294.242188 82.90625 C 292.78125 81.445312 291.289062 80.023438 289.761719 78.640625 C 288.230469 77.253906 286.671875 75.90625 285.074219 74.597656 C 283.480469 73.289062 281.855469 72.023438 280.199219 70.792969 C 278.542969 69.5625 276.855469 68.375 275.140625 67.230469 C 273.425781 66.085938 271.683594 64.980469 269.914062 63.921875 C 268.144531 62.859375 266.351562 61.84375 264.53125 60.871094 C 262.714844 59.898438 260.871094 58.972656 259.007812 58.089844 C 257.144531 57.207031 255.257812 56.375 253.351562 55.582031 C 251.445312 54.792969 249.523438 54.050781 247.582031 53.359375 C 245.636719 52.664062 243.679688 52.015625 241.707031 51.417969 C 239.734375 50.816406 237.746094 50.269531 235.746094 49.765625 C 233.742188 49.265625 231.730469 48.8125 229.707031 48.410156 C 227.683594 48.007812 225.652344 47.65625 223.613281 47.355469 C 221.574219 47.050781 219.527344 46.800781 217.472656 46.597656 C 215.421875 46.394531 213.363281 46.242188 211.304688 46.140625 C 209.246094 46.039062 207.183594 45.988281 205.121094 45.988281 C 203.058594 45.988281 200.996094 46.039062 198.9375 46.140625 C 196.875 46.242188 194.820312 46.394531 192.765625 46.597656 C 190.714844 46.800781 188.667969 47.050781 186.628906 47.355469 C 184.585938 47.65625 182.554688 48.007812 180.53125 48.410156 C 178.507812 48.8125 176.496094 49.265625 174.496094 49.765625 C 172.496094 50.269531 170.507812 50.816406 168.535156 51.417969 C 166.558594 52.015625 164.601562 52.664062 162.660156 53.359375 C 160.71875 54.050781 158.792969 54.792969 156.890625 55.582031 C 154.984375 56.375 153.097656 57.207031 151.234375 58.089844 C 149.367188 58.972656 147.527344 59.898438 145.707031 60.871094 C 143.890625 61.84375 142.09375 62.859375 140.324219 63.921875 C 138.554688 64.980469 136.8125 66.085938 135.097656 67.230469 C 133.382812 68.375 131.699219 69.5625 130.042969 70.792969 C 128.382812 72.023438 126.757812 73.289062 125.164062 74.597656 C 123.570312 75.90625 122.007812 77.253906 120.480469 78.640625 C 118.953125 80.023438 117.457031 81.445312 116 82.90625 C 114.542969 84.363281 113.121094 85.855469 111.734375 87.386719 C 110.347656 88.914062 109.003906 90.476562 107.695312 92.070312 C 106.386719 93.664062 105.117188 95.289062 103.886719 96.945312 C 102.660156 98.601562 101.472656 100.289062 100.324219 102.003906 C 99.179688 103.71875 98.078125 105.460938 97.015625 107.230469 C 95.957031 109 94.941406 110.792969 93.96875 112.613281 C 92.996094 114.433594 92.066406 116.273438 91.1875 118.136719 C 90.304688 120.003906 89.46875 121.886719 88.679688 123.792969 C 87.890625 125.699219 87.148438 127.625 86.453125 129.566406 C 85.757812 131.507812 85.109375 133.464844 84.511719 135.4375 C 83.914062 137.414062 83.363281 139.398438 82.863281 141.402344 C 82.359375 143.402344 81.910156 145.414062 81.507812 147.4375 C 81.105469 149.460938 80.753906 151.492188 80.449219 153.53125 C 80.148438 155.570312 79.894531 157.617188 79.691406 159.671875 C 79.488281 161.722656 79.339844 163.78125 79.238281 165.839844 C 79.136719 167.902344 79.085938 169.960938 79.085938 172.023438 C 79.085938 216.945312 103.007812 278.050781 140.191406 313.972656 C 139.121094 316.929688 137.890625 319.820312 136.492188 322.640625 C 135.097656 325.460938 133.550781 328.195312 131.847656 330.84375 C 130.144531 333.488281 128.296875 336.03125 126.308594 338.46875 C 124.320312 340.90625 122.199219 343.226562 119.949219 345.425781 C 117.695312 347.625 115.332031 349.691406 112.847656 351.621094 C 110.363281 353.554688 107.78125 355.34375 105.09375 356.984375 C 102.410156 358.625 99.640625 360.109375 96.789062 361.441406 C 93.9375 362.769531 91.019531 363.9375 88.035156 364.9375 L 43.328125 379.917969 C 41.777344 380.4375 40.25 381.015625 38.742188 381.65625 C 37.238281 382.292969 35.757812 382.988281 34.304688 383.742188 C 32.855469 384.496094 31.433594 385.304688 30.042969 386.171875 C 28.65625 387.035156 27.304688 387.953125 25.984375 388.921875 C 24.667969 389.894531 23.390625 390.914062 22.152344 391.984375 C 20.917969 393.054688 19.722656 394.171875 18.574219 395.332031 C 17.421875 396.496094 16.320312 397.703125 15.261719 398.953125 C 14.207031 400.203125 13.203125 401.492188 12.246094 402.820312 C 11.289062 404.148438 10.386719 405.511719 9.539062 406.910156 C 8.691406 408.308594 7.898438 409.738281 7.160156 411.195312 C 6.421875 412.65625 5.742188 414.144531 5.125 415.65625 C 4.503906 417.171875 3.941406 418.707031 3.441406 420.265625 C 2.9375 421.820312 2.5 423.394531 2.121094 424.988281 C 1.742188 426.578125 1.425781 428.183594 1.175781 429.800781 C 0.921875 431.414062 0.730469 433.039062 0.605469 434.671875 C 0.480469 436.300781 0.417969 437.933594 0.417969 439.570312 L 0.417969 545.496094 C 0.417969 546.117188 0.480469 546.734375 0.601562 547.347656 C 0.722656 547.957031 0.902344 548.550781 1.140625 549.125 C 1.378906 549.699219 1.671875 550.246094 2.015625 550.765625 C 2.363281 551.28125 2.753906 551.761719 3.195312 552.203125 C 3.636719 552.640625 4.113281 553.035156 4.632812 553.382812 C 5.152344 553.726562 5.695312 554.019531 6.273438 554.257812 C 6.847656 554.496094 7.441406 554.675781 8.050781 554.796875 C 8.660156 554.917969 9.277344 554.980469 9.902344 554.980469 L 400.339844 554.980469 C 400.960938 554.980469 401.578125 554.917969 402.191406 554.796875 C 402.800781 554.675781 403.394531 554.496094 403.96875 554.257812 C 404.542969 554.019531 405.089844 553.726562 405.609375 553.382812 C 406.125 553.035156 406.605469 552.640625 407.042969 552.203125 C 407.484375 551.761719 407.878906 551.28125 408.222656 550.765625 C 408.570312 550.246094 408.863281 549.699219 409.101562 549.125 C 409.339844 548.550781 409.519531 547.957031 409.640625 547.347656 C 409.761719 546.734375 409.820312 546.121094 409.820312 545.496094 Z M 130.65625 272.148438 C 110.542969 241.132812 98.050781 202.773438 98.050781 172.023438 C 98.050781 170.273438 98.09375 168.523438 98.179688 166.769531 C 98.265625 165.019531 98.394531 163.273438 98.566406 161.53125 C 98.738281 159.785156 98.953125 158.046875 99.210938 156.316406 C 99.464844 154.582031 99.765625 152.855469 100.109375 151.136719 C 100.449219 149.417969 100.832031 147.707031 101.257812 146.007812 C 101.683594 144.308594 102.152344 142.621094 102.660156 140.945312 C 103.167969 139.265625 103.71875 137.605469 104.308594 135.953125 C 104.898438 134.304688 105.53125 132.671875 106.199219 131.050781 C 106.871094 129.433594 107.582031 127.832031 108.332031 126.246094 C 109.078125 124.664062 109.867188 123.097656 110.691406 121.550781 C 111.519531 120.007812 112.382812 118.484375 113.285156 116.980469 C 114.183594 115.476562 115.121094 113.996094 116.09375 112.539062 C 117.070312 111.082031 118.078125 109.652344 119.121094 108.242188 C 120.164062 106.835938 121.242188 105.453125 122.355469 104.101562 C 123.464844 102.746094 124.609375 101.417969 125.785156 100.121094 C 126.964844 98.824219 128.171875 97.554688 129.410156 96.316406 C 130.648438 95.074219 131.917969 93.867188 133.214844 92.691406 C 134.515625 91.515625 135.839844 90.371094 137.195312 89.257812 C 138.550781 88.148438 139.929688 87.070312 141.339844 86.027344 C 142.746094 84.980469 144.179688 83.972656 145.636719 83 C 147.09375 82.027344 148.574219 81.089844 150.074219 80.1875 C 151.578125 79.289062 153.101562 78.421875 154.648438 77.597656 C 156.191406 76.773438 157.757812 75.984375 159.34375 75.234375 C 160.925781 74.484375 162.527344 73.777344 164.144531 73.105469 C 165.765625 72.433594 167.398438 71.804688 169.050781 71.214844 C 170.699219 70.625 172.363281 70.074219 174.039062 69.566406 C 175.714844 69.058594 177.40625 68.589844 179.105469 68.164062 C 180.804688 67.738281 182.511719 67.355469 184.230469 67.011719 C 185.949219 66.671875 187.675781 66.371094 189.410156 66.113281 C 191.144531 65.855469 192.882812 65.640625 194.625 65.46875 C 196.371094 65.300781 198.117188 65.171875 199.867188 65.085938 C 201.617188 64.996094 203.367188 64.953125 205.121094 64.953125 C 206.871094 64.953125 208.625 64.996094 210.375 65.085938 C 212.125 65.171875 213.871094 65.300781 215.613281 65.46875 C 217.359375 65.640625 219.097656 65.855469 220.832031 66.113281 C 222.5625 66.371094 224.289062 66.671875 226.007812 67.011719 C 227.726562 67.355469 229.4375 67.738281 231.136719 68.164062 C 232.835938 68.589844 234.523438 69.058594 236.199219 69.566406 C 237.878906 70.074219 239.542969 70.625 241.191406 71.214844 C 242.839844 71.804688 244.476562 72.433594 246.09375 73.105469 C 247.714844 73.777344 249.316406 74.484375 250.898438 75.234375 C 252.484375 75.984375 254.046875 76.773438 255.59375 77.597656 C 257.136719 78.421875 258.664062 79.289062 260.164062 80.1875 C 261.667969 81.089844 263.148438 82.027344 264.605469 83 C 266.0625 83.972656 267.496094 84.980469 268.902344 86.027344 C 270.308594 87.070312 271.691406 88.148438 273.042969 89.257812 C 274.398438 90.371094 275.726562 91.515625 277.023438 92.691406 C 278.324219 93.867188 279.589844 95.074219 280.832031 96.316406 C 282.070312 97.554688 283.277344 98.824219 284.453125 100.121094 C 285.628906 101.417969 286.773438 102.746094 287.886719 104.101562 C 289 105.453125 290.074219 106.835938 291.121094 108.242188 C 292.164062 109.652344 293.171875 111.082031 294.144531 112.539062 C 295.121094 113.996094 296.054688 115.476562 296.957031 116.980469 C 297.859375 118.484375 298.722656 120.007812 299.546875 121.550781 C 300.375 123.097656 301.160156 124.664062 301.910156 126.246094 C 302.660156 127.832031 303.371094 129.433594 304.039062 131.050781 C 304.710938 132.671875 305.339844 134.304688 305.929688 135.953125 C 306.523438 137.605469 307.070312 139.265625 307.578125 140.945312 C 308.089844 142.621094 308.554688 144.308594 308.980469 146.007812 C 309.40625 147.707031 309.792969 149.417969 310.132812 151.136719 C 310.476562 152.855469 310.773438 154.582031 311.03125 156.316406 C 311.289062 158.046875 311.503906 159.785156 311.675781 161.53125 C 311.847656 163.273438 311.976562 165.019531 312.0625 166.769531 C 312.148438 168.523438 312.191406 170.273438 312.191406 172.023438 C 312.191406 202.773438 299.699219 241.132812 279.582031 272.148438 C 257.875 305.613281 230.730469 324.820312 205.113281 324.820312 C 179.5 324.820312 152.367188 305.613281 130.65625 272.148438 Z M 390.855469 536.015625 L 19.382812 536.015625 L 19.382812 439.570312 C 19.382812 438.429688 19.425781 437.285156 19.515625 436.148438 C 19.601562 435.007812 19.734375 433.875 19.910156 432.746094 C 20.089844 431.617188 20.308594 430.496094 20.574219 429.382812 C 20.835938 428.269531 21.144531 427.171875 21.496094 426.082031 C 21.84375 424.996094 22.238281 423.921875 22.671875 422.867188 C 23.105469 421.808594 23.578125 420.769531 24.09375 419.75 C 24.609375 418.730469 25.164062 417.730469 25.757812 416.753906 C 26.347656 415.777344 26.980469 414.824219 27.648438 413.898438 C 28.3125 412.96875 29.015625 412.070312 29.753906 411.195312 C 30.492188 410.324219 31.261719 409.480469 32.066406 408.667969 C 32.871094 407.855469 33.703125 407.074219 34.566406 406.328125 C 35.433594 405.578125 36.324219 404.867188 37.246094 404.1875 C 38.164062 403.511719 39.109375 402.871094 40.082031 402.265625 C 41.050781 401.660156 42.042969 401.097656 43.058594 400.570312 C 44.070312 400.042969 45.105469 399.558594 46.15625 399.109375 C 47.207031 398.664062 48.277344 398.261719 49.359375 397.898438 L 94.066406 382.914062 C 97.457031 381.777344 100.777344 380.46875 104.03125 378.984375 C 107.28125 377.503906 110.449219 375.855469 113.53125 374.039062 C 116.609375 372.226562 119.589844 370.257812 122.464844 368.132812 C 125.335938 366.007812 128.09375 363.738281 130.730469 361.324219 C 133.371094 358.914062 135.875 356.371094 138.246094 353.695312 C 140.621094 351.019531 142.847656 348.230469 144.929688 345.324219 C 147.007812 342.417969 148.933594 339.410156 150.699219 336.300781 C 152.46875 333.195312 154.066406 330.003906 155.5 326.730469 C 170.585938 337.375 187.300781 343.785156 205.113281 343.785156 C 222.929688 343.785156 239.65625 337.375 254.738281 326.730469 C 256.171875 330.003906 257.769531 333.195312 259.539062 336.304688 C 261.304688 339.414062 263.226562 342.421875 265.308594 345.328125 C 267.386719 348.234375 269.613281 351.027344 271.984375 353.699219 C 274.355469 356.375 276.863281 358.917969 279.5 361.332031 C 282.136719 363.746094 284.890625 366.015625 287.765625 368.140625 C 290.640625 370.265625 293.617188 372.234375 296.699219 374.050781 C 299.777344 375.863281 302.945312 377.515625 306.199219 378.996094 C 309.449219 380.480469 312.769531 381.792969 316.160156 382.929688 L 360.867188 397.898438 C 361.953125 398.261719 363.019531 398.664062 364.074219 399.109375 C 365.125 399.554688 366.160156 400.042969 367.171875 400.566406 C 368.1875 401.09375 369.179688 401.660156 370.152344 402.261719 C 371.121094 402.867188 372.066406 403.507812 372.988281 404.1875 C 373.90625 404.863281 374.800781 405.574219 375.664062 406.324219 C 376.53125 407.070312 377.363281 407.851562 378.167969 408.664062 C 378.972656 409.476562 379.742188 410.320312 380.480469 411.191406 C 381.21875 412.066406 381.921875 412.964844 382.589844 413.894531 C 383.257812 414.820312 383.886719 415.773438 384.480469 416.75 C 385.074219 417.726562 385.628906 418.726562 386.144531 419.746094 C 386.660156 420.765625 387.132812 421.804688 387.566406 422.863281 C 388.003906 423.921875 388.394531 424.992188 388.746094 426.082031 C 389.09375 427.167969 389.402344 428.269531 389.667969 429.382812 C 389.929688 430.492188 390.152344 431.613281 390.328125 432.742188 C 390.503906 433.871094 390.636719 435.007812 390.726562 436.148438 C 390.816406 437.285156 390.859375 438.425781 390.855469 439.570312 Z M 390.855469 536.015625 " fill-opacity="1" fill-rule="nonzero"/></g><path fill="#dc5230" d="M 519.640625 166.324219 L 458.144531 227.820312 C 457.53125 226.886719 456.882812 225.980469 456.199219 225.097656 C 455.515625 224.21875 454.796875 223.363281 454.046875 222.539062 C 453.292969 221.714844 452.511719 220.921875 451.699219 220.15625 C 450.882812 219.394531 450.039062 218.664062 449.167969 217.96875 C 448.296875 217.269531 447.402344 216.609375 446.476562 215.980469 C 445.554688 215.355469 444.605469 214.765625 443.636719 214.214844 C 442.667969 213.664062 441.675781 213.148438 440.667969 212.675781 C 439.65625 212.203125 438.628906 211.765625 437.585938 211.375 C 436.542969 210.980469 435.484375 210.628906 434.410156 210.320312 C 433.339844 210.007812 432.257812 209.742188 431.164062 209.515625 C 430.070312 209.292969 428.96875 209.109375 427.863281 208.972656 C 426.757812 208.835938 425.644531 208.738281 424.53125 208.6875 C 423.414062 208.636719 422.300781 208.632812 421.183594 208.667969 C 420.070312 208.707031 418.957031 208.785156 417.847656 208.910156 C 416.738281 209.035156 415.636719 209.203125 414.542969 209.414062 C 413.445312 209.625 412.359375 209.878906 411.285156 210.175781 C 410.210938 210.472656 409.148438 210.808594 408.097656 211.191406 C 407.046875 211.570312 406.015625 211.992188 405 212.453125 C 403.984375 212.914062 402.988281 213.414062 402.011719 213.953125 C 401.035156 214.492188 400.082031 215.070312 399.148438 215.6875 C 398.21875 216.300781 397.3125 216.953125 396.433594 217.636719 C 395.550781 218.324219 394.699219 219.042969 393.875 219.796875 C 393.054688 220.550781 392.261719 221.332031 391.5 222.148438 C 390.738281 222.964844 390.007812 223.808594 389.3125 224.679688 C 388.617188 225.554688 387.957031 226.453125 387.332031 227.378906 C 386.710938 228.300781 386.121094 229.25 385.570312 230.222656 C 385.023438 231.191406 384.511719 232.183594 384.039062 233.195312 C 383.566406 234.207031 383.136719 235.234375 382.746094 236.277344 C 382.351562 237.324219 382.003906 238.382812 381.695312 239.453125 C 381.386719 240.527344 381.121094 241.609375 380.898438 242.703125 C 380.675781 243.796875 380.5 244.898438 380.363281 246.003906 C 380.226562 247.113281 380.132812 248.222656 380.085938 249.339844 L 376.796875 324.972656 C 376.785156 325.300781 376.785156 325.617188 376.796875 325.984375 C 376.785156 326.742188 376.796875 327.511719 376.824219 328.335938 C 376.847656 328.929688 376.859375 329.523438 376.910156 330.117188 C 376.976562 330.953125 377.074219 331.773438 377.191406 332.609375 L 377.226562 332.875 C 377.289062 333.367188 377.355469 333.847656 377.441406 334.277344 C 377.621094 335.277344 377.835938 336.199219 378.035156 337.019531 L 378.101562 337.273438 C 378.1875 337.652344 378.277344 338.03125 378.378906 338.398438 C 378.707031 339.550781 379.074219 340.609375 379.402344 341.496094 C 379.496094 341.804688 379.605469 342.109375 379.730469 342.40625 C 380.121094 343.429688 380.601562 344.492188 381.160156 345.617188 C 381.261719 345.84375 381.363281 346.0625 381.488281 346.3125 C 382.058594 347.402344 382.703125 348.527344 383.398438 349.625 C 383.480469 349.777344 383.574219 349.925781 383.675781 350.070312 C 384.371094 351.128906 385.140625 352.207031 385.976562 353.253906 C 386.066406 353.382812 386.164062 353.503906 386.269531 353.621094 C 387.195312 354.773438 388.183594 355.871094 389.226562 356.921875 C 390.261719 357.945312 391.363281 358.945312 392.476562 359.839844 C 392.613281 359.957031 392.753906 360.070312 392.894531 360.171875 C 393.945312 361.011719 395.035156 361.800781 396.167969 362.535156 C 396.28125 362.597656 396.394531 362.675781 396.507812 362.738281 C 397.621094 363.445312 398.734375 364.089844 399.847656 364.660156 C 400.0625 364.773438 400.277344 364.875 400.503906 364.976562 C 401.65625 365.542969 402.714844 366.011719 403.726562 366.417969 C 404.03125 366.53125 404.335938 366.644531 404.738281 366.769531 C 405.585938 367.085938 406.609375 367.441406 407.722656 367.757812 C 408.117188 367.871094 408.496094 367.957031 408.886719 368.046875 L 409.164062 368.109375 C 409.9375 368.3125 410.847656 368.527344 411.84375 368.703125 C 412.3125 368.78125 412.769531 368.84375 413.234375 368.90625 L 413.550781 368.957031 C 414.386719 369.058594 415.207031 369.160156 416.03125 369.234375 C 416.597656 369.273438 417.179688 369.300781 417.875 369.324219 C 418.648438 369.347656 419.40625 369.363281 420.140625 369.347656 L 420.632812 369.347656 C 420.808594 369.347656 420.984375 369.347656 421.164062 369.335938 L 496.796875 366.050781 C 498.847656 365.960938 500.882812 365.722656 502.898438 365.339844 C 504.917969 364.957031 506.894531 364.429688 508.835938 363.761719 C 510.777344 363.089844 512.660156 362.285156 514.484375 361.339844 C 516.308594 360.398438 518.054688 359.328125 519.726562 358.132812 C 521.394531 356.9375 522.96875 355.628906 524.449219 354.203125 C 525.929688 352.78125 527.296875 351.257812 528.558594 349.636719 C 529.816406 348.011719 530.953125 346.308594 531.964844 344.523438 C 532.976562 342.734375 533.855469 340.886719 534.601562 338.972656 C 535.34375 337.058594 535.949219 335.101562 536.410156 333.101562 C 536.871094 331.097656 537.1875 329.074219 537.355469 327.027344 C 537.523438 324.984375 537.542969 322.933594 537.414062 320.886719 C 537.285156 318.835938 537.011719 316.804688 536.589844 314.796875 C 536.167969 312.789062 535.601562 310.820312 534.894531 308.890625 C 534.1875 306.960938 533.34375 305.097656 532.367188 303.289062 C 531.390625 301.484375 530.285156 299.757812 529.058594 298.113281 C 527.832031 296.464844 526.492188 294.917969 525.039062 293.464844 C 522.996094 291.40625 520.757812 289.578125 518.328125 287.988281 L 579.8125 226.503906 C 580.804688 225.519531 581.746094 224.492188 582.636719 223.414062 C 583.527344 222.335938 584.359375 221.21875 585.140625 220.0625 C 585.921875 218.902344 586.644531 217.707031 587.304688 216.476562 C 587.96875 215.246094 588.570312 213.988281 589.109375 212.699219 C 589.648438 211.410156 590.121094 210.097656 590.53125 208.761719 C 590.941406 207.425781 591.28125 206.074219 591.558594 204.703125 C 591.835938 203.335938 592.042969 201.953125 592.183594 200.5625 C 592.324219 199.175781 592.394531 197.78125 592.398438 196.382812 C 592.402344 194.988281 592.335938 193.59375 592.199219 192.203125 C 592.066406 190.8125 591.863281 189.429688 591.59375 188.058594 C 591.324219 186.6875 590.984375 185.335938 590.582031 183.996094 C 590.179688 182.660156 589.710938 181.34375 589.175781 180.054688 C 588.644531 178.761719 588.046875 177.5 587.390625 176.269531 C 586.734375 175.035156 586.015625 173.839844 585.242188 172.675781 C 584.464844 171.511719 583.632812 170.390625 582.75 169.3125 C 581.863281 168.230469 580.925781 167.199219 579.9375 166.210938 C 578.949219 165.222656 577.914062 164.285156 576.835938 163.398438 C 575.753906 162.511719 574.632812 161.679688 573.472656 160.90625 C 572.3125 160.128906 571.113281 159.414062 569.882812 158.753906 C 568.648438 158.097656 567.386719 157.5 566.09375 156.96875 C 564.804688 156.433594 563.488281 155.964844 562.152344 155.5625 C 560.816406 155.15625 559.460938 154.820312 558.089844 154.550781 C 556.71875 154.277344 555.339844 154.078125 553.949219 153.941406 C 552.558594 153.808594 551.164062 153.742188 549.765625 153.742188 C 548.371094 153.746094 546.976562 153.816406 545.585938 153.957031 C 544.195312 154.097656 542.816406 154.304688 541.445312 154.582031 C 540.078125 154.855469 538.722656 155.199219 537.386719 155.609375 C 536.050781 156.015625 534.738281 156.492188 533.449219 157.03125 C 532.160156 157.566406 530.902344 158.167969 529.671875 158.832031 C 528.441406 159.492188 527.246094 160.214844 526.085938 160.996094 C 524.929688 161.773438 523.808594 162.609375 522.734375 163.5 C 521.65625 164.390625 520.625 165.332031 519.640625 166.324219 Z M 519.640625 166.324219 " fill-opacity="1" fill-rule="nonzero"/></svg>